Nobile-Extra-Bold.ufo
<glyph name="quotedbl" format="1">
  <advance width="984"/>
  <unicode hex="0022"/>
  <outline>
    <contour>
      <point x="190" y="817" type="line"/>
      <point x="367" y="817" type="line"/>
      <point x="430" y="1404" type="line"/>
      <point x="430" y="1408"/>
      <point x="430" y="1486"/>
      <point x="430" y="1490" type="curve"/>
      <point x="115" y="1490" type="line"/>
      <point x="115" y="1486"/>
      <point x="114" y="1408"/>
      <point x="115" y="1404" type="curve"/>
    </contour>
    <contour>
      <point x="634" y="817" type="line"/>
      <point x="811" y="817" type="line"/>
      <point x="891" y="1404" type="line"/>
      <point x="892" y="1408"/>
      <point x="891" y="1486"/>
      <point x="891" y="1490" type="curve"/>
      <point x="577" y="1490" type="line"/>
      <point x="577" y="1486"/>
      <point x="577" y="1408"/>
      <point x="577" y="1404" type="curve"/>
    </contour>
  </outline>
</glyph>
<glyph name="numbersign" format="1">
  <advance width="1329"/>
  <unicode hex="0023"/>
  <outline>
    <contour>
      <point x="162" y="0" type="line"/>
      <point x="368" y="0" type="line"/>
      <point x="660" y="1490" type="line"/>
      <point x="437" y="1490" type="line"/>
    </contour>
    <contour>
      <point x="94" y="476" type="line"/>
      <point x="1240" y="476" type="line"/>
      <point x="1240" y="616" type="line"/>
      <point x="94" y="616" type="line"/>
    </contour>
    <contour>
      <point x="122" y="854" type="line"/>
      <point x="1268" y="854" type="line"/>
      <point x="1268" y="994" type="line"/>
      <point x="122" y="994" type="line"/>
    </contour>
    <contour>
      <point x="699" y="0" type="line"/>
      <point x="905" y="0" type="line"/>
      <point x="1198" y="1490" type="line"/>
      <point x="975" y="1490" type="line"/>
    </contour>
  </outline>
</glyph>
<glyph name="dollar" format="1">
  <advance width="1021"/>
  <unicode hex="0024"/>
  <outline>
    <contour>
      <point x="330" y="-180" type="line"/>
      <point x="425" y="-180" type="line"/>
      <point x="689" y="1533" type="line"/>
      <point x="594" y="1533" type="line"/>
    </contour>
    <component base="s" xOffset="-21" yOffset="77"/>
  </outline>
</glyph>
<glyph name="parenleft" format="1">
  <advance width="890"/>
  <unicode hex="0028"/>
  <outline>
    <contour>
      <point x="634" y="-279" type="curve"/>
      <point x="787" y="-115" type="line"/>
      <point x="610" y="65"/>
      <point x="523" y="359"/>
      <point x="523" y="658" type="curve" smooth="yes"/>
      <point x="523" y="965"/>
      <point x="617" y="1276"/>
      <point x="799" y="1470" type="curve"/>
      <point x="637" y="1633" type="line"/>
      <point x="334" y="1413"/>
      <point x="183" y="1043"/>
      <point x="183" y="673" type="curve" smooth="yes"/>
      <point x="183" y="306"/>
      <point x="333" y="-61"/>
    </contour>
  </outline>
</glyph>
<glyph name="parenright" format="1">
  <advance width="888"/>
  <unicode hex="0029"/>
  <outline>
    <contour>
      <point x="296" y="-279" type="line"/>
      <point x="597" y="-61"/>
      <point x="747" y="306"/>
      <point x="747" y="673" type="curve" smooth="yes"/>
      <point x="747" y="1043"/>
      <point x="596" y="1413"/>
      <point x="294" y="1633" type="curve"/>
      <point x="131" y="1470" type="line"/>
      <point x="313" y="1276"/>
      <point x="407" y="965"/>
      <point x="407" y="658" type="curve" smooth="yes"/>
      <point x="407" y="359"/>
      <point x="321" y="65"/>
      <point x="143" y="-115" type="curve"/>
    </contour>
  </outline>
</glyph>
<glyph name="plus" format="1">
  <advance width="1022"/>
  <unicode hex="002B"/>
  <outline>
    <contour>
      <point x="367" y="83" type="line"/>
      <point x="654" y="83" type="line"/>
      <point x="654" y="418" type="line"/>
      <point x="980" y="418" type="line"/>
      <point x="980" y="672" type="line"/>
      <point x="654" y="672" type="line"/>
      <point x="654" y="1004" type="line"/>
      <point x="367" y="1004" type="line"/>
      <point x="367" y="672" type="line"/>
      <point x="40" y="672" type="line"/>
      <point x="40" y="418" type="line"/>
      <point x="367" y="418" type="line"/>
    </contour>
  </outline>
</glyph>
<glyph name="comma" format="1">
  <advance width="737"/>
  <unicode hex="002C"/>
  <outline>
    <contour>
      <point x="257" y="-299" type="line"/>
      <point x="418" y="-251"/>
      <point x="582" y="-185"/>
      <point x="582" y="50" type="curve" smooth="yes"/>
      <point x="582" y="404" type="line"/>
      <point x="201" y="404" type="line"/>
      <point x="201" y="0" type="line"/>
      <point x="347" y="0" type="line"/>
      <point x="347" y="-97"/>
      <point x="324" y="-147"/>
      <point x="200" y="-192" type="curve"/>
    </contour>
  </outline>
</glyph>
<glyph name="hyphen" format="1">
  <advance width="1090"/>
  <unicode hex="002D"/>
  <outline>
    <contour>
      <point x="158" y="550" type="line"/>
      <point x="919" y="550" type="line"/>
      <point x="919" y="791" type="line"/>
      <point x="158" y="791" type="line"/>
    </contour>
  </outline>
</glyph>
<glyph name="zero" format="1">
  <advance width="1380"/>
  <unicode hex="0030"/>
  <outline>
    <contour>
      <point x="685" y="237" type="curve" smooth="yes"/>
      <point x="517" y="237"/>
      <point x="460" y="364"/>
      <point x="460" y="548" type="curve" smooth="yes"/>
      <point x="460" y="703"/>
      <point x="510" y="859"/>
      <point x="685" y="859" type="curve" smooth="yes"/>
      <point x="860" y="859"/>
      <point x="919" y="720"/>
      <point x="919" y="557" type="curve" smooth="yes"/>
      <point x="919" y="382"/>
      <point x="865" y="237"/>
    </contour>
    <contour>
      <point x="684" y="-20" type="curve" smooth="yes"/>
      <point x="1041" y="-20"/>
      <point x="1243" y="202"/>
      <point x="1243" y="538" type="curve" smooth="yes"/>
      <point x="1243" y="891"/>
      <point x="1057" y="1116"/>
      <point x="685" y="1116" type="curve" smooth="yes"/>
      <point x="327" y="1116"/>
      <point x="133" y="900"/>
      <point x="133" y="546" type="curve" smooth="yes"/>
      <point x="133" y="210"/>
      <point x="324" y="-20"/>
    </contour>
  </outline>
</glyph>
<glyph name="two" format="1">
  <advance width="1111"/>
  <unicode hex="0032"/>
  <outline>
    <contour>
      <point x="150" y="0" type="line"/>
      <point x="967" y="0" type="line"/>
      <point x="967" y="257" type="line"/>
      <point x="608" y="257" type="line"/>
      <point x="737" y="369" type="line" smooth="yes"/>
      <point x="926" y="538"/>
      <point x="977" y="632"/>
      <point x="977" y="780" type="curve" smooth="yes"/>
      <point x="977" y="1020"/>
      <point x="779" y="1115"/>
      <point x="560" y="1115" type="curve" smooth="yes"/>
      <point x="401" y="1115"/>
      <point x="237" y="1068"/>
      <point x="111" y="993" type="curve"/>
      <point x="198" y="763" type="line"/>
      <point x="292" y="816"/>
      <point x="404" y="854"/>
      <point x="498" y="854" type="curve" smooth="yes"/>
      <point x="585" y="854"/>
      <point x="652" y="820"/>
      <point x="652" y="729" type="curve" smooth="yes"/>
      <point x="652" y="630"/>
      <point x="501" y="517"/>
      <point x="435" y="459" type="curve" smooth="yes"/>
      <point x="150" y="204" type="line"/>
    </contour>
  </outline>
</glyph>
<glyph name="four" format="1">
  <advance width="1202"/>
  <unicode hex="0034"/>
  <outline>
    <contour>
      <point x="653" y="-200" type="line"/>
      <point x="936" y="-200" type="line"/>
      <point x="936" y="55" type="line"/>
      <point x="1106" y="55" type="line"/>
      <point x="1106" y="287" type="line"/>
      <point x="936" y="287" type="line"/>
      <point x="936" y="1085" type="line"/>
      <point x="689" y="1150" type="line"/>
      <point x="81" y="251" type="line"/>
      <point x="120" y="55" type="line"/>
      <point x="653" y="55" type="line"/>
    </contour>
    <contour>
      <point x="387" y="287" type="line"/>
      <point x="653" y="726" type="line"/>
      <point x="653" y="287" type="line"/>
    </contour>
  </outline>
</glyph>
<glyph name="six" format="1">
  <advance width="1212"/>
  <unicode hex="0036"/>
  <outline>
    <contour>
      <point x="650" y="-73" type="curve" smooth="yes"/>
      <point x="947" y="-73"/>
      <point x="1122" y="117"/>
      <point x="1122" y="386" type="curve" smooth="yes"/>
      <point x="1122" y="631"/>
      <point x="973" y="833"/>
      <point x="693" y="833" type="curve" smooth="yes"/>
      <point x="608" y="833"/>
      <point x="512" y="807"/>
      <point x="468" y="770" type="curve"/>
      <point x="539" y="938"/>
      <point x="762" y="1072"/>
      <point x="948" y="1101" type="curve"/>
      <point x="869" y="1362" type="line"/>
      <point x="493" y="1268"/>
      <point x="124" y="1005"/>
      <point x="124" y="483" type="curve" smooth="yes"/>
      <point x="124" y="170"/>
      <point x="306" y="-73"/>
    </contour>
    <contour>
      <point x="640" y="172" type="curve" smooth="yes"/>
      <point x="472" y="172"/>
      <point x="419" y="289"/>
      <point x="419" y="424" type="curve" smooth="yes"/>
      <point x="419" y="459"/>
      <point x="424" y="492"/>
      <point x="432" y="525" type="curve"/>
      <point x="489" y="569"/>
      <point x="570" y="598"/>
      <point x="650" y="598" type="curve" smooth="yes"/>
      <point x="775" y="598"/>
      <point x="836" y="507"/>
      <point x="836" y="389" type="curve" smooth="yes"/>
      <point x="836" y="262"/>
      <point x="765" y="172"/>
    </contour>
  </outline>
</glyph>
<glyph name="nine" format="1">
  <advance width="1210"/>
  <unicode hex="0039"/>
  <outline>
    <contour>
      <point x="372" y="-328" type="line"/>
      <point x="801" y="-217"/>
      <point x="1117" y="62"/>
      <point x="1117" y="563" type="curve" smooth="yes"/>
      <point x="1117" y="808"/>
      <point x="1016" y="1116"/>
      <point x="599" y="1116" type="curve" smooth="yes"/>
      <point x="301" y="1116"/>
      <point x="119" y="927"/>
      <point x="119" y="658" type="curve" smooth="yes"/>
      <point x="119" y="412"/>
      <point x="269" y="201"/>
      <point x="549" y="201" type="curve" smooth="yes"/>
      <point x="649" y="201"/>
      <point x="735" y="228"/>
      <point x="774" y="266" type="curve"/>
      <point x="704" y="103"/>
      <point x="508" y="-25"/>
      <point x="289" y="-69" type="curve"/>
    </contour>
    <contour>
      <point x="453" y="590" type="curve" smooth="yes"/>
      <point x="417" y="670"/>
      <point x="447" y="772"/>
      <point x="548" y="807" type="curve" smooth="yes"/>
      <point x="669" y="844"/>
      <point x="724" y="783"/>
      <point x="763" y="695" type="curve" smooth="yes"/>
      <point x="810" y="667"/>
      <point x="820" y="601"/>
      <point x="812" y="533" type="curve"/>
      <point x="768" y="495"/>
      <point x="706" y="472"/>
      <point x="655" y="465" type="curve" smooth="yes"/>
      <point x="551" y="449"/>
      <point x="472" y="515"/>
    </contour>
  </outline>
</glyph>
<glyph name="colon" format="1">
  <advance width="774"/>
  <unicode hex="003A"/>
  <outline>
    <contour>
      <point x="193" y="0" type="line"/>
      <point x="581" y="0" type="line"/>
      <point x="581" y="423" type="line"/>
      <point x="193" y="423" type="line"/>
    </contour>
    <contour>
      <point x="193" y="710" type="line"/>
      <point x="581" y="710" type="line"/>
      <point x="581" y="1129" type="line"/>
      <point x="193" y="1129" type="line"/>
    </contour>
  </outline>
</glyph>
<glyph name="semicolon" format="1">
  <advance width="762"/>
  <unicode hex="003B"/>
  <outline>
    <contour>
      <point x="265" y="-295" type="line"/>
      <point x="425" y="-248"/>
      <point x="608" y="-185"/>
      <point x="608" y="50" type="curve" smooth="yes"/>
      <point x="608" y="404" type="line"/>
      <point x="206" y="404" type="line"/>
      <point x="206" y="0" type="line"/>
      <point x="378" y="0" type="line"/>
      <point x="377" y="-97"/>
      <point x="330" y="-142"/>
      <point x="206" y="-186" type="curve"/>
    </contour>
    <contour>
      <point x="203" y="710" type="line"/>
      <point x="607" y="710" type="line"/>
      <point x="607" y="1129" type="line"/>
      <point x="203" y="1129" type="line"/>
    </contour>
  </outline>
</glyph>
<glyph name="less" format="1">
  <advance width="1437"/>
  <unicode hex="003C"/>
  <outline>
    <contour>
      <point x="1142" y="84" type="line"/>
      <point x="1281" y="306" type="line"/>
      <point x="637" y="711" type="line"/>
      <point x="1281" y="1116" type="line"/>
      <point x="1142" y="1338" type="line"/>
      <point x="122" y="711" type="line"/>
    </contour>
  </outline>
</glyph>
<glyph name="equal" format="1">
  <advance width="1176"/>
  <unicode hex="003D"/>
  <outline>
    <contour>
      <point x="69" y="262" type="line"/>
      <point x="1066" y="262" type="line"/>
      <point x="1066" y="492" type="line"/>
      <point x="69" y="492" type="line"/>
    </contour>
    <contour>
      <point x="69" y="644" type="line"/>
      <point x="1066" y="644" type="line"/>
      <point x="1066" y="873" type="line"/>
      <point x="69" y="873" type="line"/>
    </contour>
  </outline>
</glyph>
<glyph name="at" format="1">
  <advance width="1880"/>
  <unicode hex="0040"/>
  <outline>
    <contour>
      <point x="939" y="-142" type="curve" smooth="yes"/>
      <point x="1106" y="-142"/>
      <point x="1299" y="-108"/>
      <point x="1421" y="-56" type="curve"/>
      <point x="1367" y="103" type="line"/>
      <point x="1255" y="47"/>
      <point x="1088" y="13"/>
      <point x="939" y="13" type="curve" smooth="yes"/>
      <point x="519" y="13"/>
      <point x="285" y="261"/>
      <point x="287" y="678" type="curve" smooth="yes"/>
      <point x="289" y="1105"/>
      <point x="585" y="1375"/>
      <point x="1008" y="1375" type="curve" smooth="yes"/>
      <point x="1396" y="1375"/>
      <point x="1637" y="1156"/>
      <point x="1637" y="802" type="curve" smooth="yes"/>
      <point x="1637" y="534"/>
      <point x="1552" y="374"/>
      <point x="1434" y="374" type="curve" smooth="yes"/>
      <point x="1412" y="374"/>
      <point x="1398" y="391"/>
      <point x="1399" y="425" type="curve" smooth="yes"/>
      <point x="1399" y="429"/>
      <point x="1449" y="994"/>
      <point x="1450" y="1019" type="curve" smooth="yes"/>
      <point x="1451" y="1129"/>
      <point x="1309" y="1194"/>
      <point x="1095" y="1194" type="curve" smooth="yes"/>
      <point x="725" y="1194"/>
      <point x="464" y="971"/>
      <point x="464" y="617" type="curve" smooth="yes"/>
      <point x="464" y="377"/>
      <point x="588" y="220"/>
      <point x="819" y="220" type="curve" smooth="yes"/>
      <point x="1040" y="220"/>
      <point x="1220" y="378"/>
      <point x="1290" y="628" type="curve"/>
      <point x="1256" y="632" type="line"/>
      <point x="1253" y="577"/>
      <point x="1241" y="479"/>
      <point x="1241" y="409" type="curve" smooth="yes"/>
      <point x="1241" y="304"/>
      <point x="1310" y="234"/>
      <point x="1416" y="234" type="curve" smooth="yes"/>
      <point x="1662" y="234"/>
      <point x="1814" y="457"/>
      <point x="1814" y="802" type="curve" smooth="yes"/>
      <point x="1814" y="1247"/>
      <point x="1502" y="1530"/>
      <point x="1008" y="1530" type="curve" smooth="yes"/>
      <point x="465" y="1530"/>
      <point x="94" y="1192"/>
      <point x="94" y="670" type="curve" smooth="yes"/>
      <point x="94" y="165"/>
      <point x="410" y="-142"/>
    </contour>
    <contour>
      <point x="843" y="369" type="curve" smooth="yes"/>
      <point x="711" y="369"/>
      <point x="649" y="475"/>
      <point x="649" y="633" type="curve" smooth="yes"/>
      <point x="649" y="897"/>
      <point x="836" y="1058"/>
      <point x="1094" y="1060" type="curve" smooth="yes"/>
      <point x="1145" y="1060"/>
      <point x="1217" y="1047"/>
      <point x="1283" y="1025" type="curve"/>
      <point x="1237" y="618"/>
      <point x="1065" y="369"/>
    </contour>
  </outline>
</glyph>
<glyph name="A" format="1">
  <advance width="1433"/>
  <unicode hex="0041"/>
  <outline>
    <contour>
      <point x="720" y="1485" type="move" name="top"/>
    </contour>
    <contour>
      <point x="27" y="0" type="line"/>
      <point x="384" y="0" type="line"/>
      <point x="489" y="327" type="line"/>
      <point x="942" y="327" type="line"/>
      <point x="1046" y="0" type="line"/>
      <point x="1404" y="0" type="line"/>
      <point x="913" y="1485" type="line"/>
      <point x="519" y="1485" type="line"/>
    </contour>
    <contour>
      <point x="534" y="502" type="line"/>
      <point x="722" y="1098" type="line"/>
      <point x="897" y="502" type="line"/>
    </contour>
  </outline>
</glyph>
<glyph name="C" format="1">
  <advance width="1289"/>
  <unicode hex="0043"/>
  <outline>
    <contour>
      <point x="802" y="1483" type="move" name="top"/>
    </contour>
    <contour>
      <point x="730" y="0" type="move" name="bot"/>
    </contour>
    <contour>
      <point x="798" y="-20" type="curve" smooth="yes"/>
      <point x="943" y="-20"/>
      <point x="1087" y="17"/>
      <point x="1220" y="84" type="curve"/>
      <point x="1126" y="317" type="line"/>
      <point x="1050" y="278"/>
      <point x="964" y="254"/>
      <point x="877" y="254" type="curve" smooth="yes"/>
      <point x="641" y="254"/>
      <point x="471" y="421"/>
      <point x="471" y="738" type="curve" smooth="yes"/>
      <point x="471" y="1066"/>
      <point x="638" y="1237"/>
      <point x="879" y="1237" type="curve" smooth="yes"/>
      <point x="966" y="1237"/>
      <point x="1057" y="1211"/>
      <point x="1132" y="1172" type="curve"/>
      <point x="1227" y="1405" type="line"/>
      <point x="1112" y="1465"/>
      <point x="971" y="1505"/>
      <point x="823" y="1505" type="curve" smooth="yes"/>
      <point x="434" y="1505"/>
      <point x="102" y="1266"/>
      <point x="102" y="747" type="curve" smooth="yes"/>
      <point x="102" y="244"/>
      <point x="402" y="-20"/>
    </contour>
  </outline>
</glyph>
<glyph name="F" format="1">
  <advance width="1185"/>
  <unicode hex="0046"/>
  <outline>
    <contour>
      <point x="709" y="1485" type="move" name="top"/>
    </contour>
    <contour>
      <point x="169" y="0" type="line"/>
      <point x="533" y="0" type="line"/>
      <point x="533" y="608" type="line"/>
      <point x="1079" y="608" type="line"/>
      <point x="1079" y="832" type="line"/>
      <point x="533" y="832" type="line"/>
      <point x="533" y="1220" type="line"/>
      <point x="1127" y="1220" type="line"/>
      <point x="1127" y="1485" type="line"/>
      <point x="169" y="1485" type="line"/>
    </contour>
  </outline>
</glyph>
<glyph name="G" format="1">
  <advance width="1495"/>
  <unicode hex="0047"/>
  <outline>
    <contour>
      <point x="781" y="0" type="move" name="bot"/>
    </contour>
    <contour>
      <point x="745" y="-20" type="curve" smooth="yes"/>
      <point x="925" y="-20"/>
      <point x="1056" y="64"/>
      <point x="1085" y="157" type="curve"/>
      <point x="1131" y="0" type="line"/>
      <point x="1350" y="0" type="line"/>
      <point x="1350" y="836" type="line"/>
      <point x="810" y="836" type="line"/>
      <point x="810" y="616" type="line"/>
      <point x="1051" y="616" type="line"/>
      <point x="1051" y="317" type="line"/>
      <point x="995" y="263"/>
      <point x="899" y="238"/>
      <point x="813" y="238" type="curve" smooth="yes"/>
      <point x="592" y="238"/>
      <point x="471" y="386"/>
      <point x="471" y="724" type="curve" smooth="yes"/>
      <point x="471" y="1079"/>
      <point x="593" y="1246"/>
      <point x="843" y="1246" type="curve" smooth="yes"/>
      <point x="987" y="1246"/>
      <point x="1101" y="1198"/>
      <point x="1205" y="1139" type="curve"/>
      <point x="1302" y="1369" type="line"/>
      <point x="1161" y="1452"/>
      <point x="992" y="1505"/>
      <point x="820" y="1505" type="curve" smooth="yes"/>
      <point x="419" y="1505"/>
      <point x="102" y="1276"/>
      <point x="102" y="726" type="curve" smooth="yes"/>
      <point x="102" y="245"/>
      <point x="364" y="-20"/>
    </contour>
  </outline>
</glyph>
<glyph name="H" format="1">
  <advance width="1569"/>
  <unicode hex="0048"/>
  <outline>
    <contour>
      <point x="803" y="1485" type="move" name="top"/>
    </contour>
    <contour>
      <point x="169" y="0" type="line"/>
      <point x="535" y="0" type="line"/>
      <point x="535" y="657" type="line"/>
      <point x="1034" y="657" type="line"/>
      <point x="1034" y="0" type="line"/>
      <point x="1399" y="0" type="line"/>
      <point x="1399" y="1485" type="line"/>
      <point x="1034" y="1485" type="line"/>
      <point x="1034" y="886" type="line"/>
      <point x="535" y="886" type="line"/>
      <point x="535" y="1485" type="line"/>
      <point x="169" y="1485" type="line"/>
    </contour>
  </outline>
</glyph>
<glyph name="I" format="1">
  <advance width="954"/>
  <unicode hex="0049"/>
  <outline>
    <contour>
      <point x="476" y="1485" type="move" name="top"/>
    </contour>
    <contour>
      <point x="128" y="0" type="line"/>
      <point x="826" y="0" type="line"/>
      <point x="826" y="238" type="line"/>
      <point x="658" y="238" type="line"/>
      <point x="658" y="1247" type="line"/>
      <point x="826" y="1247" type="line"/>
      <point x="826" y="1485" type="line"/>
      <point x="128" y="1485" type="line"/>
      <point x="128" y="1247" type="line"/>
      <point x="295" y="1247" type="line"/>
      <point x="295" y="238" type="line"/>
      <point x="128" y="238" type="line"/>
    </contour>
  </outline>
</glyph>
<glyph name="M" format="1">
  <advance width="1929"/>
  <unicode hex="004D"/>
  <outline>
    <contour>
      <point x="971" y="1485" type="move" name="top"/>
    </contour>
    <contour>
      <point x="169" y="0" type="line"/>
      <point x="472" y="0" type="line"/>
      <point x="472" y="981" type="line"/>
      <point x="800" y="21" type="line"/>
      <point x="1136" y="21" type="line"/>
      <point x="1458" y="981" type="line"/>
      <point x="1458" y="0" type="line"/>
      <point x="1760" y="0" type="line"/>
      <point x="1760" y="1485" type="line"/>
      <point x="1341" y="1485" type="line"/>
      <point x="958" y="428" type="line"/>
      <point x="587" y="1485" type="line"/>
      <point x="169" y="1485" type="line"/>
    </contour>
  </outline>
</glyph>
<glyph name="N" format="1">
  <advance width="1603"/>
  <unicode hex="004E"/>
  <outline>
    <contour>
      <point x="825" y="1485" type="move" name="top"/>
    </contour>
    <contour>
      <point x="851" y="0" type="move" name="bot"/>
    </contour>
    <contour>
      <point x="169" y="0" type="line"/>
      <point x="495" y="0" type="line"/>
      <point x="495" y="980" type="line"/>
      <point x="1063" y="0" type="line"/>
      <point x="1434" y="0" type="line"/>
      <point x="1434" y="1485" type="line"/>
      <point x="1110" y="1485" type="line"/>
      <point x="1110" y="525" type="line"/>
      <point x="554" y="1485" type="line"/>
      <point x="169" y="1485" type="line"/>
    </contour>
  </outline>
</glyph>
<glyph name="O" format="1">
  <advance width="1563"/>
  <unicode hex="004F"/>
  <outline>
    <contour>
      <point x="794" y="1483" type="move" name="top"/>
    </contour>
    <contour>
      <point x="782" y="234" type="curve" smooth="yes"/>
      <point x="538" y="234"/>
      <point x="470" y="458"/>
      <point x="470" y="745" type="curve" smooth="yes"/>
      <point x="470" y="1031"/>
      <point x="538" y="1246"/>
      <point x="782" y="1246" type="curve" smooth="yes"/>
      <point x="1025" y="1246"/>
      <point x="1093" y="1033"/>
      <point x="1093" y="745" type="curve" smooth="yes"/>
      <point x="1093" y="466"/>
      <point x="1029" y="234"/>
    </contour>
    <contour>
      <point x="782" y="-20" type="curve" smooth="yes"/>
      <point x="1244" y="-20"/>
      <point x="1462" y="262"/>
      <point x="1462" y="745" type="curve" smooth="yes"/>
      <point x="1462" y="1236"/>
      <point x="1232" y="1505"/>
      <point x="782" y="1505" type="curve" smooth="yes"/>
      <point x="331" y="1505"/>
      <point x="102" y="1243"/>
      <point x="102" y="745" type="curve" smooth="yes"/>
      <point x="102" y="262"/>
      <point x="319" y="-20"/>
    </contour>
  </outline>
</glyph>
<glyph name="P" format="1">
  <advance width="1387"/>
  <unicode hex="0050"/>
  <outline>
    <contour>
      <point x="614" y="1485" type="move" name="top"/>
    </contour>
    <contour>
      <point x="169" y="0" type="line"/>
      <point x="535" y="0" type="line"/>
      <point x="535" y="604" type="line"/>
      <point x="574" y="604" type="line" smooth="yes"/>
      <point x="1092" y="603"/>
      <point x="1330" y="701"/>
      <point x="1330" y="1097" type="curve" smooth="yes"/>
      <point x="1330" y="1407"/>
      <point x="1125" y="1485"/>
      <point x="627" y="1485" type="curve" smooth="yes"/>
      <point x="169" y="1485" type="line"/>
    </contour>
    <contour>
      <point x="535" y="839" type="line"/>
      <point x="535" y="1265" type="line"/>
      <point x="616" y="1265" type="line" smooth="yes"/>
      <point x="864" y="1265"/>
      <point x="964" y="1234"/>
      <point x="964" y="1064" type="curve" smooth="yes"/>
      <point x="964" y="882"/>
      <point x="838" y="839"/>
      <point x="596" y="839" type="curve" smooth="yes"/>
    </contour>
  </outline>
</glyph>
<glyph name="Q" format="1">
  <advance width="1563"/>
  <unicode hex="0051"/>
  <outline>
    <contour>
      <point x="1037" y="-426" type="line"/>
      <point x="1222" y="-264" type="line"/>
      <point x="1013" y="11" type="line"/>
      <point x="1319" y="92"/>
      <point x="1462" y="357"/>
      <point x="1462" y="747" type="curve" smooth="yes"/>
      <point x="1462" y="1237"/>
      <point x="1232" y="1505"/>
      <point x="782" y="1505" type="curve" smooth="yes"/>
      <point x="331" y="1505"/>
      <point x="102" y="1243"/>
      <point x="102" y="747" type="curve" smooth="yes"/>
      <point x="102" y="293"/>
      <point x="296" y="13"/>
      <point x="711" y="-14" type="curve"/>
    </contour>
    <contour>
      <point x="782" y="237" type="curve" smooth="yes"/>
      <point x="538" y="237"/>
      <point x="470" y="460"/>
      <point x="470" y="747" type="curve" smooth="yes"/>
      <point x="470" y="1035"/>
      <point x="538" y="1246"/>
      <point x="782" y="1246" type="curve" smooth="yes"/>
      <point x="1025" y="1246"/>
      <point x="1093" y="1037"/>
      <point x="1093" y="747" type="curve" smooth="yes"/>
      <point x="1093" y="467"/>
      <point x="1029" y="237"/>
    </contour>
  </outline>
</glyph>
<glyph name="S" format="1">
  <advance width="1261"/>
  <unicode hex="0053"/>
  <outline>
    <contour>
      <point x="629" y="1486" type="move" name="top"/>
    </contour>
    <contour>
      <point x="640" y="-1" type="move" name="bot"/>
    </contour>
    <contour>
      <point x="844" y="424" type="curve" smooth="yes"/>
      <point x="844" y="302"/>
      <point x="763" y="258"/>
      <point x="630" y="258" type="curve" smooth="yes"/>
      <point x="482" y="258"/>
      <point x="306" y="320"/>
      <point x="212" y="377" type="curve"/>
      <point x="110" y="116" type="line"/>
      <point x="274" y="26"/>
      <point x="465" y="-20"/>
      <point x="638" y="-20" type="curve" smooth="yes"/>
      <point x="1038" y="-20"/>
      <point x="1171" y="201"/>
      <point x="1171" y="443" type="curve" smooth="yes"/>
      <point x="1171" y="645"/>
      <point x="1113" y="776"/>
      <point x="832" y="877" type="curve" smooth="yes"/>
      <point x="562" y="974" type="line" smooth="yes"/>
      <point x="487" y="1002"/>
      <point x="452" y="1038"/>
      <point x="452" y="1093" type="curve" smooth="yes"/>
      <point x="452" y="1190"/>
      <point x="520" y="1225"/>
      <point x="639" y="1225" type="curve" smooth="yes"/>
      <point x="755" y="1225"/>
      <point x="901" y="1185"/>
      <point x="1014" y="1139" type="curve"/>
      <point x="1117" y="1379" type="line"/>
      <point x="970" y="1457"/>
      <point x="782" y="1505"/>
      <point x="615" y="1505" type="curve" smooth="yes"/>
      <point x="339" y="1505"/>
      <point x="107" y="1387"/>
      <point x="107" y="1085" type="curve" smooth="yes"/>
      <point x="107" y="879"/>
      <point x="215" y="757"/>
      <point x="439" y="676" type="curve" smooth="yes"/>
      <point x="694" y="583" type="line" smooth="yes"/>
      <point x="809" y="542"/>
      <point x="845" y="504"/>
    </contour>
  </outline>
</glyph>
<glyph name="U" format="1">
  <advance width="1575"/>
  <unicode hex="0055"/>
  <outline>
    <contour>
      <point x="794" y="1485" type="move" name="top"/>
    </contour>
    <contour>
      <point x="784" y="-21" type="curve" smooth="yes"/>
      <point x="1272" y="-21"/>
      <point x="1423" y="194"/>
      <point x="1423" y="690" type="curve" smooth="yes"/>
      <point x="1423" y="1485" type="line"/>
      <point x="1057" y="1485" type="line"/>
      <point x="1057" y="674" type="line" smooth="yes"/>
      <point x="1057" y="357"/>
      <point x="1004" y="243"/>
      <point x="784" y="243" type="curve" smooth="yes"/>
      <point x="571" y="243"/>
      <point x="518" y="357"/>
      <point x="518" y="674" type="curve" smooth="yes"/>
      <point x="518" y="1485" type="line"/>
      <point x="152" y="1485" type="line"/>
      <point x="152" y="690" type="line" smooth="yes"/>
      <point x="152" y="194"/>
      <point x="302" y="-21"/>
    </contour>
  </outline>
</glyph>
<glyph name="V" format="1">
  <advance width="1498"/>
  <unicode hex="0056"/>
  <outline>
    <contour>
      <point x="570" y="0" type="line"/>
      <point x="921" y="0" type="line"/>
      <point x="1458" y="1485" type="line"/>
      <point x="1105" y="1485" type="line"/>
      <point x="748" y="425" type="line"/>
      <point x="393" y="1485" type="line"/>
      <point x="41" y="1485" type="line"/>
    </contour>
  </outline>
</glyph>
<glyph name="W" format="1">
  <advance width="2051"/>
  <unicode hex="0057"/>
  <outline>
    <contour>
      <point x="1036" y="1485" type="move" name="top"/>
    </contour>
    <contour>
      <point x="384" y="0" type="line"/>
      <point x="757" y="0" type="line"/>
      <point x="1027" y="990" type="line"/>
      <point x="1277" y="0" type="line"/>
      <point x="1655" y="0" type="line"/>
      <point x="1980" y="1485" type="line"/>
      <point x="1641" y="1485" type="line"/>
      <point x="1442" y="456" type="line"/>
      <point x="1196" y="1397" type="line"/>
      <point x="858" y="1397" type="line"/>
      <point x="599" y="456" type="line"/>
      <point x="410" y="1485" type="line"/>
      <point x="72" y="1485" type="line"/>
    </contour>
  </outline>
</glyph>
<glyph name="X" format="1">
  <advance width="1385"/>
  <unicode hex="0058"/>
  <outline>
    <contour>
      <point x="31" y="0" type="line"/>
      <point x="394" y="0" type="line"/>
      <point x="685" y="470" type="line"/>
      <point x="970" y="0" type="line"/>
      <point x="1353" y="0" type="line"/>
      <point x="892" y="749" type="line"/>
      <point x="1351" y="1485" type="line"/>
      <point x="993" y="1485" type="line"/>
      <point x="705" y="1009" type="line"/>
      <point x="413" y="1485" type="line"/>
      <point x="33" y="1485" type="line"/>
      <point x="487" y="753" type="line"/>
    </contour>
  </outline>
</glyph>
<glyph name="bracketleft" format="1">
  <advance width="977"/>
  <unicode hex="005B"/>
  <outline>
    <contour>
      <point x="167" y="-130" type="line"/>
      <point x="883" y="-130" type="line"/>
      <point x="883" y="54" type="line"/>
      <point x="495" y="54" type="line"/>
      <point x="495" y="1490" type="line"/>
      <point x="883" y="1490" type="line"/>
      <point x="883" y="1674" type="line"/>
      <point x="167" y="1674" type="line"/>
    </contour>
  </outline>
</glyph>
<glyph name="asciicircum" format="1">
  <advance width="1242"/>
  <unicode hex="005E"/>
  <outline>
    <contour>
      <point x="72" y="566" type="line"/>
      <point x="351" y="566" type="line"/>
      <point x="621" y="1185" type="line"/>
      <point x="890" y="566" type="line"/>
      <point x="1171" y="566" type="line"/>
      <point x="755" y="1490" type="line"/>
      <point x="488" y="1490" type="line"/>
    </contour>
  </outline>
</glyph>
<glyph name="underscore" format="1">
  <advance width="1059"/>
  <unicode hex="005F"/>
  <outline>
    <contour>
      <point x="57" y="-319" type="line"/>
      <point x="1003" y="-319" type="line"/>
      <point x="1003" y="-60" type="line"/>
      <point x="57" y="-60" type="line"/>
    </contour>
  </outline>
</glyph>
<glyph name="e" format="1">
  <advance width="1177"/>
  <unicode hex="0065"/>
  <outline>
    <contour>
      <point x="651" y="1099" type="move" name="top"/>
    </contour>
    <contour>
      <point x="659" y="-3" type="move" name="bot"/>
    </contour>
    <contour>
      <point x="666" y="-20" type="curve" smooth="yes"/>
      <point x="800" y="-20"/>
      <point x="951" y="12"/>
      <point x="1071" y="91" type="curve"/>
      <point x="995" y="293" type="line"/>
      <point x="916" y="251"/>
      <point x="823" y="216"/>
      <point x="706" y="216" type="curve" smooth="yes"/>
      <point x="574" y="216"/>
      <point x="445" y="274"/>
      <point x="434" y="468" type="curve"/>
      <point x="1076" y="468" type="line"/>
      <point x="1085" y="580"/>
      <point x="1087" y="604"/>
      <point x="1087" y="628" type="curve" smooth="yes"/>
      <point x="1087" y="937"/>
      <point x="919" y="1116"/>
      <point x="645" y="1116" type="curve" smooth="yes"/>
      <point x="301" y="1116"/>
      <point x="84" y="894"/>
      <point x="84" y="542" type="curve" smooth="yes"/>
      <point x="84" y="197"/>
      <point x="289" y="-20"/>
    </contour>
    <contour>
      <point x="439" y="658" type="line"/>
      <point x="443" y="805"/>
      <point x="513" y="894"/>
      <point x="636" y="894" type="curve" smooth="yes"/>
      <point x="734" y="894"/>
      <point x="799" y="821"/>
      <point x="799" y="689" type="curve" smooth="yes"/>
      <point x="799" y="658" type="line"/>
    </contour>
  </outline>
</glyph>
<glyph name="j" format="1">
  <advance width="716"/>
  <unicode hex="006A"/>
  <outline>
    <contour>
      <point x="122" y="-464" type="line"/>
      <point x="405" y="-395"/>
      <point x="564" y="-294"/>
      <point x="564" y="9" type="curve" smooth="yes"/>
      <point x="564" y="1096" type="line"/>
      <point x="217" y="1096" type="line"/>
      <point x="217" y="118" type="line" smooth="yes"/>
      <point x="217" y="-105"/>
      <point x="214" y="-140"/>
      <point x="9" y="-225" type="curve"/>
    </contour>
    <contour>
      <point x="390" y="1263" type="curve" smooth="yes"/>
      <point x="498" y="1263"/>
      <point x="584" y="1345"/>
      <point x="584" y="1453" type="curve" smooth="yes"/>
      <point x="584" y="1560"/>
      <point x="496" y="1645"/>
      <point x="390" y="1645" type="curve" smooth="yes"/>
      <point x="283" y="1645"/>
      <point x="200" y="1560"/>
      <point x="200" y="1453" type="curve" smooth="yes"/>
      <point x="200" y="1349"/>
      <point x="280" y="1263"/>
    </contour>
  </outline>
</glyph>
<glyph name="k" format="1">
  <advance width="1278"/>
  <unicode hex="006B"/>
  <outline>
    <contour>
      <point x="876" y="1096" type="move" name="top"/>
    </contour>
    <contour>
      <point x="702" y="0" type="move" name="bot"/>
    </contour>
    <contour>
      <point x="147" y="0" type="line"/>
      <point x="493" y="0" type="line"/>
      <point x="493" y="402" type="line"/>
      <point x="576" y="478" type="line"/>
      <point x="896" y="0" type="line"/>
      <point x="1285" y="0" type="line"/>
      <point x="817" y="628" type="line"/>
      <point x="1255" y="1096" type="line"/>
      <point x="858" y="1096" type="line"/>
      <point x="493" y="688" type="line"/>
      <point x="493" y="1549" type="line"/>
      <point x="147" y="1490" type="line"/>
    </contour>
  </outline>
</glyph>
<glyph name="n" format="1">
  <advance width="1307"/>
  <unicode hex="006E"/>
  <outline>
    <contour>
      <point x="715" y="1099" type="move" name="top"/>
    </contour>
    <contour>
      <point x="696" y="0" type="move" name="bot"/>
    </contour>
    <contour>
      <point x="143" y="0" type="line"/>
      <point x="489" y="0" type="line"/>
      <point x="489" y="782" type="line"/>
      <point x="554" y="845"/>
      <point x="625" y="877"/>
      <point x="697" y="877" type="curve" smooth="yes"/>
      <point x="791" y="877"/>
      <point x="833" y="827"/>
      <point x="833" y="690" type="curve" smooth="yes"/>
      <point x="833" y="0" type="line"/>
      <point x="1178" y="0" type="line"/>
      <point x="1178" y="706" type="line" smooth="yes"/>
      <point x="1178" y="1045"/>
      <point x="987" y="1116"/>
      <point x="819" y="1116" type="curve" smooth="yes"/>
      <point x="671" y="1116"/>
      <point x="541" y="1056"/>
      <point x="444" y="973" type="curve"/>
      <point x="407" y="1096" type="line"/>
      <point x="143" y="1096" type="line"/>
    </contour>
  </outline>
</glyph>
<glyph name="r" format="1">
  <advance width="877"/>
  <unicode hex="0072"/>
  <outline>
    <contour>
      <point x="482" y="1096" type="move" name="top"/>
    </contour>
    <contour>
      <point x="464" y="0" type="move" name="bot"/>
    </contour>
    <contour>
      <point x="147" y="0" type="line"/>
      <point x="492" y="0" type="line"/>
      <point x="492" y="721" type="line"/>
      <point x="597" y="778"/>
      <point x="727" y="821"/>
      <point x="848" y="824" type="curve"/>
      <point x="814" y="1107" type="line"/>
      <point x="683" y="1107"/>
      <point x="557" y="1030"/>
      <point x="463" y="924" type="curve"/>
      <point x="409" y="1096" type="line"/>
      <point x="147" y="1096" type="line"/>
    </contour>
  </outline>
</glyph>
<glyph name="t" format="1">
  <advance width="935"/>
  <unicode hex="0074"/>
  <outline>
    <contour>
      <point x="362" y="1489" type="move" name="top"/>
    </contour>
    <contour>
      <point x="443" y="1462" type="move" name="caron.alt"/>
    </contour>
    <contour>
      <point x="556" y="0" type="move" name="bot"/>
    </contour>
    <contour>
      <point x="613" y="-10" type="curve" smooth="yes"/>
      <point x="709" y="-11"/>
      <point x="807" y="8"/>
      <point x="890" y="42" type="curve"/>
      <point x="843" y="263" type="line"/>
      <point x="796" y="250"/>
      <point x="744" y="239"/>
      <point x="697" y="239" type="curve" smooth="yes"/>
      <point x="608" y="239"/>
      <point x="550" y="280"/>
      <point x="550" y="376" type="curve" smooth="yes"/>
      <point x="550" y="909" type="line"/>
      <point x="851" y="909" type="line"/>
      <point x="851" y="1096" type="line"/>
      <point x="550" y="1096" type="line"/>
      <point x="550" y="1514" type="line"/>
      <point x="238" y="1441" type="line"/>
      <point x="217" y="1096" type="line"/>
      <point x="25" y="1096" type="line"/>
      <point x="25" y="909" type="line"/>
      <point x="206" y="909" type="line"/>
      <point x="206" y="392" type="line" smooth="yes"/>
      <point x="206" y="99"/>
      <point x="397" y="-9"/>
    </contour>
  </outline>
</glyph>
<glyph name="u" format="1">
  <advance width="1326"/>
  <unicode hex="0075"/>
  <outline>
    <contour>
      <point x="655" y="1096" type="move" name="top"/>
    </contour>
    <contour>
      <point x="525" y="-20" type="curve" smooth="yes"/>
      <point x="722" y="-20"/>
      <point x="820" y="65"/>
      <point x="884" y="126" type="curve"/>
      <point x="922" y="0" type="line"/>
      <point x="1185" y="0" type="line"/>
      <point x="1185" y="1096" type="line"/>
      <point x="839" y="1096" type="line"/>
      <point x="839" y="303" type="line"/>
      <point x="798" y="252"/>
      <point x="730" y="197"/>
      <point x="626" y="197" type="curve" smooth="yes"/>
      <point x="538" y="197"/>
      <point x="479" y="251"/>
      <point x="479" y="367" type="curve" smooth="yes"/>
      <point x="479" y="1096" type="line"/>
      <point x="133" y="1096" type="line"/>
      <point x="133" y="419" type="line" smooth="yes"/>
      <point x="133" y="84"/>
      <point x="303" y="-20"/>
    </contour>
  </outline>
</glyph>
<glyph name="w" format="1">
  <advance width="1608"/>
  <unicode hex="0077"/>
  <outline>
    <contour>
      <point x="811" y="1096" type="move" name="top"/>
    </contour>
    <contour>
      <point x="970" y="0" type="line"/>
      <point x="1305" y="0" type="line"/>
      <point x="1562" y="1096" type="line"/>
      <point x="1253" y="1096" type="line"/>
      <point x="1108" y="356" type="line"/>
      <point x="936" y="1096" type="line"/>
      <point x="682" y="1096" type="line"/>
      <point x="504" y="364" type="line"/>
      <point x="361" y="1096" type="line"/>
      <point x="47" y="1096" type="line"/>
      <point x="307" y="0" type="line"/>
      <point x="637" y="0" type="line"/>
      <point x="804" y="639" type="line"/>
    </contour>
  </outline>
</glyph>
<glyph name="x" format="1">
  <advance width="1155"/>
  <unicode hex="0078"/>
  <outline>
    <contour>
      <point x="28" y="0" type="line"/>
      <point x="413" y="0" type="line"/>
      <point x="579" y="315" type="line"/>
      <point x="748" y="0" type="line"/>
      <point x="1128" y="0" type="line"/>
      <point x="761" y="551" type="line"/>
      <point x="1133" y="1096" type="line"/>
      <point x="747" y="1096" type="line"/>
      <point x="583" y="799" type="line"/>
      <point x="413" y="1096" type="line"/>
      <point x="20" y="1096" type="line"/>
      <point x="402" y="551" type="line"/>
    </contour>
  </outline>
</glyph>
<glyph name="bar" format="1">
  <advance width="856"/>
  <unicode hex="007C"/>
  <outline>
    <contour>
      <point x="277" y="-142" type="line"/>
      <point x="580" y="-142" type="line"/>
      <point x="580" y="1571" type="line"/>
      <point x="277" y="1571" type="line"/>
    </contour>
  </outline>
</glyph>
<glyph name="cent" format="1">
  <advance width="1054"/>
  <unicode hex="00A2"/>
  <outline>
    <contour>
      <point x="577" y="-194" type="line"/>
      <point x="700" y="-194" type="line"/>
      <point x="700" y="1360" type="line"/>
      <point x="577" y="1360" type="line"/>
    </contour>
    <component base="c" yScale="0.946" yOffset="58"/>
  </outline>
</glyph>
<glyph name="currency" format="1">
  <advance width="1345"/>
  <unicode hex="00A4"/>
  <outline>
    <contour>
      <point x="270" y="383" type="line"/>
      <point x="456" y="569" type="line"/>
      <point x="521" y="529"/>
      <point x="592" y="509"/>
      <point x="668" y="509" type="curve" smooth="yes"/>
      <point x="754" y="509"/>
      <point x="832" y="533"/>
      <point x="905" y="583" type="curve"/>
      <point x="1105" y="383" type="line"/>
      <point x="1226" y="506" type="line"/>
      <point x="1028" y="705" type="line"/>
      <point x="1079" y="778"/>
      <point x="1103" y="858"/>
      <point x="1103" y="945" type="curve" smooth="yes"/>
      <point x="1103" y="1021"/>
      <point x="1083" y="1092"/>
      <point x="1042" y="1156" type="curve"/>
      <point x="1226" y="1342" type="line"/>
      <point x="1105" y="1464" type="line"/>
      <point x="923" y="1281" type="line"/>
      <point x="855" y="1325"/>
      <point x="781" y="1348"/>
      <point x="700" y="1348" type="curve" smooth="yes"/>
      <point x="614" y="1348"/>
      <point x="534" y="1323"/>
      <point x="461" y="1273" type="curve"/>
      <point x="270" y="1464" type="line"/>
      <point x="148" y="1342" type="line"/>
      <point x="339" y="1150" type="line"/>
      <point x="290" y="1076"/>
      <point x="265" y="999"/>
      <point x="265" y="913" type="curve" smooth="yes"/>
      <point x="265" y="832"/>
      <point x="287" y="758"/>
      <point x="331" y="690" type="curve"/>
      <point x="148" y="506" type="line"/>
    </contour>
    <contour>
      <point x="684" y="678" type="curve" smooth="yes"/>
      <point x="518" y="678"/>
      <point x="446" y="797"/>
      <point x="446" y="918" type="curve" smooth="yes"/>
      <point x="446" y="1045"/>
      <point x="527" y="1177"/>
      <point x="693" y="1177" type="curve" smooth="yes"/>
      <point x="852" y="1177"/>
      <point x="923" y="1057"/>
      <point x="923" y="936" type="curve" smooth="yes"/>
      <point x="923" y="809"/>
      <point x="845" y="678"/>
    </contour>
  </outline>
</glyph>
<glyph name="yen" format="1">
  <advance width="1311"/>
  <unicode hex="00A5"/>
  <outline>
    <contour>
      <point x="1306" y="1485" type="line"/>
      <point x="947" y="1485" type="line"/>
      <point x="656" y="879" type="line"/>
      <point x="368" y="1485" type="line"/>
      <point x="4" y="1485" type="line"/>
      <point x="374" y="737" type="line"/>
      <point x="165" y="737" type="line"/>
      <point x="165" y="622" type="line"/>
      <point x="421" y="622" type="line"/>
      <point x="471" y="480" type="line"/>
      <point x="165" y="480" type="line"/>
      <point x="165" y="365" type="line"/>
      <point x="471" y="365" type="line"/>
      <point x="471" y="0" type="line"/>
      <point x="828" y="0" type="line"/>
      <point x="828" y="365" type="line"/>
      <point x="1127" y="365" type="line"/>
      <point x="1127" y="480" type="line"/>
      <point x="828" y="480" type="line"/>
      <point x="875" y="622" type="line"/>
      <point x="1127" y="622" type="line"/>
      <point x="1127" y="737" type="line"/>
      <point x="922" y="737" type="line"/>
    </contour>
  </outline>
</glyph>
<glyph name="dieresis" format="1">
  <advance width="1255"/>
  <unicode hex="00A8"/>
  <outline>
    <contour>
      <point x="633" y="1098" type="move" name="_top"/>
    </contour>
    <contour>
      <point x="372" y="1230" type="curve" smooth="yes"/>
      <point x="461" y="1230"/>
      <point x="533" y="1299"/>
      <point x="533" y="1389" type="curve" smooth="yes"/>
      <point x="533" y="1479"/>
      <point x="460" y="1549"/>
      <point x="372" y="1549" type="curve" smooth="yes"/>
      <point x="282" y="1549"/>
      <point x="214" y="1479"/>
      <point x="214" y="1389" type="curve" smooth="yes"/>
      <point x="214" y="1302"/>
      <point x="280" y="1230"/>
    </contour>
    <contour>
      <point x="872" y="1230" type="curve" smooth="yes"/>
      <point x="961" y="1230"/>
      <point x="1033" y="1299"/>
      <point x="1033" y="1389" type="curve" smooth="yes"/>
      <point x="1033" y="1479"/>
      <point x="960" y="1549"/>
      <point x="872" y="1549" type="curve" smooth="yes"/>
      <point x="784" y="1549"/>
      <point x="714" y="1479"/>
      <point x="714" y="1389" type="curve" smooth="yes"/>
      <point x="714" y="1302"/>
      <point x="780" y="1230"/>
    </contour>
  </outline>
</glyph>
<glyph name="guillemotleft" format="1">
  <advance width="1604"/>
  <unicode hex="00AB"/>
  <outline>
    <contour>
      <point x="774" y="30" type="line"/>
      <point x="774" y="321" type="line"/>
      <point x="465" y="564" type="line"/>
      <point x="774" y="807" type="line"/>
      <point x="774" y="1095" type="line"/>
      <point x="165" y="674" type="line"/>
      <point x="165" y="453" type="line"/>
    </contour>
    <contour>
      <point x="1432" y="30" type="line"/>
      <point x="1432" y="321" type="line"/>
      <point x="1123" y="564" type="line"/>
      <point x="1433" y="807" type="line"/>
      <point x="1433" y="1095" type="line"/>
      <point x="823" y="674" type="line"/>
      <point x="823" y="453" type="line"/>
    </contour>
  </outline>
</glyph>
<glyph name="logicalnot" format="1">
  <advance width="1153"/>
  <unicode hex="00AC"/>
  <outline>
    <contour>
      <point x="835" y="339" type="line"/>
      <point x="1032" y="339" type="line"/>
      <point x="1032" y="1019" type="line"/>
      <point x="104" y="1019" type="line"/>
      <point x="104" y="761" type="line"/>
      <point x="835" y="761" type="line"/>
    </contour>
  </outline>
</glyph>
<glyph name="registered" format="1">
  <advance width="1827"/>
  <unicode hex="00AE"/>
  <outline>
    <contour>
      <point x="605" y="355" type="line"/>
      <point x="808" y="355" type="line"/>
      <point x="808" y="698" type="line"/>
      <point x="859" y="698" type="line" smooth="yes"/>
      <point x="961" y="698"/>
      <point x="1023" y="669"/>
      <point x="1034" y="563" type="curve" smooth="yes"/>
      <point x="1057" y="355" type="line"/>
      <point x="1257" y="355" type="line"/>
      <point x="1235" y="605" type="line" smooth="yes"/>
      <point x="1225" y="725"/>
      <point x="1147" y="763"/>
      <point x="1026" y="775" type="curve"/>
      <point x="1157" y="782"/>
      <point x="1251" y="824"/>
      <point x="1251" y="961" type="curve" smooth="yes"/>
      <point x="1251" y="1095"/>
      <point x="1213" y="1178"/>
      <point x="872" y="1178" type="curve" smooth="yes"/>
      <point x="605" y="1178" type="line"/>
    </contour>
    <contour>
      <point x="808" y="826" type="line"/>
      <point x="808" y="1056" type="line"/>
      <point x="884" y="1056" type="line" smooth="yes"/>
      <point x="1002" y="1056"/>
      <point x="1047" y="1027"/>
      <point x="1047" y="937" type="curve" smooth="yes"/>
      <point x="1047" y="848"/>
      <point x="980" y="826"/>
      <point x="883" y="826" type="curve" smooth="yes"/>
    </contour>
    <contour>
      <point x="914" y="126" type="curve" smooth="yes"/>
      <point x="525" y="126"/>
      <point x="284" y="361"/>
      <point x="284" y="751" type="curve" smooth="yes"/>
      <point x="284" y="1142"/>
      <point x="525" y="1376"/>
      <point x="914" y="1376" type="curve" smooth="yes"/>
      <point x="1302" y="1376"/>
      <point x="1543" y="1142"/>
      <point x="1543" y="751" type="curve" smooth="yes"/>
      <point x="1543" y="361"/>
      <point x="1302" y="126"/>
    </contour>
    <contour>
      <point x="914" y="-15" type="curve" smooth="yes"/>
      <point x="1406" y="-15"/>
      <point x="1720" y="288"/>
      <point x="1720" y="751" type="curve" smooth="yes"/>
      <point x="1720" y="1215"/>
      <point x="1406" y="1518"/>
      <point x="914" y="1518" type="curve" smooth="yes"/>
      <point x="422" y="1518"/>
      <point x="108" y="1215"/>
      <point x="108" y="751" type="curve" smooth="yes"/>
      <point x="108" y="288"/>
      <point x="422" y="-15"/>
    </contour>
  </outline>
</glyph>
<glyph name="macron" format="1">
  <advance width="634"/>
  <unicode hex="00AF"/>
  <outline>
    <contour>
      <point x="326" y="1098" type="move" name="_top"/>
    </contour>
    <contour>
      <point x="327" y="1341" type="move" name="_mid"/>
    </contour>
    <contour>
      <point x="-6" y="1263" type="line"/>
      <point x="645" y="1263" type="line"/>
      <point x="645" y="1421" type="line"/>
      <point x="-6" y="1421" type="line"/>
    </contour>
  </outline>
</glyph>
<glyph name="plusminus" format="1">
  <advance width="1133"/>
  <unicode hex="00B1"/>
  <outline>
    <contour>
      <point x="424" y="418" type="line"/>
      <point x="711" y="418" type="line"/>
      <point x="711" y="752" type="line"/>
      <point x="1030" y="752" type="line"/>
      <point x="1030" y="999" type="line"/>
      <point x="711" y="999" type="line"/>
      <point x="711" y="1330" type="line"/>
      <point x="424" y="1330" type="line"/>
      <point x="424" y="999" type="line"/>
      <point x="105" y="999" type="line"/>
      <point x="105" y="752" type="line"/>
      <point x="424" y="752" type="line"/>
    </contour>
    <contour>
      <point x="158" y="-11" type="line"/>
      <point x="977" y="-11" type="line"/>
      <point x="977" y="229" type="line"/>
      <point x="158" y="229" type="line"/>
    </contour>
  </outline>
</glyph>
<glyph name="uni00B2" format="1">
  <advance width="1203"/>
  <unicode hex="00B2"/>
  <outline>
    <contour>
      <point x="267" y="663" type="line"/>
      <point x="944" y="663" type="line"/>
      <point x="944" y="851" type="line"/>
      <point x="603" y="851" type="line"/>
      <point x="728" y="972" type="line" smooth="yes"/>
      <point x="871" y="1113"/>
      <point x="962" y="1194"/>
      <point x="962" y="1351" type="curve" smooth="yes"/>
      <point x="962" y="1567"/>
      <point x="795" y="1657"/>
      <point x="609" y="1657" type="curve" smooth="yes"/>
      <point x="479" y="1657"/>
      <point x="340" y="1614"/>
      <point x="242" y="1538" type="curve"/>
      <point x="326" y="1366" type="line"/>
      <point x="409" y="1413"/>
      <point x="503" y="1444"/>
      <point x="577" y="1444" type="curve" smooth="yes"/>
      <point x="656" y="1444"/>
      <point x="715" y="1410"/>
      <point x="715" y="1326" type="curve" smooth="yes"/>
      <point x="715" y="1243"/>
      <point x="650" y="1188"/>
      <point x="570" y="1113" type="curve" smooth="yes"/>
      <point x="267" y="827" type="line"/>
    </contour>
  </outline>
</glyph>
<glyph name="uni00B3" format="1">
  <advance width="1169"/>
  <unicode hex="00B3"/>
  <outline>
    <contour>
      <point x="578" y="569" type="curve" smooth="yes"/>
      <point x="776" y="569"/>
      <point x="954" y="659"/>
      <point x="954" y="888" type="curve" smooth="yes"/>
      <point x="954" y="962"/>
      <point x="913" y="1115"/>
      <point x="739" y="1145" type="curve"/>
      <point x="850" y="1165"/>
      <point x="917" y="1277"/>
      <point x="917" y="1383" type="curve" smooth="yes"/>
      <point x="917" y="1584"/>
      <point x="756" y="1664"/>
      <point x="571" y="1664" type="curve" smooth="yes"/>
      <point x="458" y="1663"/>
      <point x="330" y="1631"/>
      <point x="224" y="1577" type="curve"/>
      <point x="306" y="1398" type="line"/>
      <point x="386" y="1438"/>
      <point x="467" y="1458"/>
      <point x="529" y="1458" type="curve" smooth="yes"/>
      <point x="624" y="1458"/>
      <point x="668" y="1417"/>
      <point x="668" y="1344" type="curve" smooth="yes"/>
      <point x="668" y="1251"/>
      <point x="587" y="1216"/>
      <point x="449" y="1216" type="curve"/>
      <point x="449" y="1052" type="line"/>
      <point x="518" y="1050"/>
      <point x="686" y="1012"/>
      <point x="686" y="904" type="curve" smooth="yes"/>
      <point x="685" y="808"/>
      <point x="620" y="771"/>
      <point x="531" y="771" type="curve" smooth="yes"/>
      <point x="464" y="771"/>
      <point x="378" y="792"/>
      <point x="303" y="828" type="curve"/>
      <point x="242" y="641" type="line"/>
      <point x="347" y="597"/>
      <point x="467" y="569"/>
    </contour>
  </outline>
</glyph>
<glyph name="acute" format="1">
  <advance width="1172"/>
  <unicode hex="00B4"/>
  <outline>
    <contour>
      <point x="446" y="1098" type="move" name="_top"/>
    </contour>
    <contour>
      <point x="423" y="1275" type="line"/>
      <point x="958" y="1591" type="line"/>
      <point x="775" y="1823" type="line"/>
      <point x="314" y="1412" type="line"/>
    </contour>
  </outline>
</glyph>
<glyph name="periodcentered" format="1">
  <advance width="749"/>
  <unicode hex="00B7"/>
  <outline>
    <contour>
      <point x="489" y="606" type="curve" smooth="yes"/>
      <point x="597" y="606"/>
      <point x="684" y="688"/>
      <point x="684" y="797" type="curve" smooth="yes"/>
      <point x="684" y="905"/>
      <point x="595" y="988"/>
      <point x="489" y="988" type="curve" smooth="yes"/>
      <point x="382" y="988"/>
      <point x="299" y="905"/>
      <point x="299" y="797" type="curve" smooth="yes"/>
      <point x="299" y="693"/>
      <point x="378" y="606"/>
    </contour>
  </outline>
</glyph>
<glyph name="cedilla" format="1">
  <advance width="679"/>
  <unicode hex="00B8"/>
  <outline>
    <contour>
      <point x="200" y="0" type="move" name="_bot"/>
    </contour>
    <contour>
      <point x="227" y="-419" type="curve" smooth="yes"/>
      <point x="339" y="-419"/>
      <point x="427" y="-357"/>
      <point x="427" y="-229" type="curve"/>
      <point x="423" y="-102"/>
      <point x="297" y="-73"/>
      <point x="230" y="-70" type="curve"/>
      <point x="243" y="0" type="line"/>
      <point x="133" y="0" type="line"/>
      <point x="121" y="-127" type="line"/>
      <point x="255" y="-129"/>
      <point x="280" y="-168"/>
      <point x="280" y="-232" type="curve" smooth="yes"/>
      <point x="280" y="-288"/>
      <point x="237" y="-309"/>
      <point x="185" y="-309" type="curve" smooth="yes"/>
      <point x="141" y="-309"/>
      <point x="89" y="-293"/>
      <point x="56" y="-272" type="curve"/>
      <point x="27" y="-359" type="line"/>
      <point x="86" y="-396"/>
      <point x="159" y="-419"/>
    </contour>
  </outline>
</glyph>
<glyph name="guillemotright" format="1">
  <advance width="1604"/>
  <unicode hex="00BB"/>
  <outline>
    <contour>
      <point x="218" y="30" type="line"/>
      <point x="827" y="453" type="line"/>
      <point x="827" y="674" type="line"/>
      <point x="218" y="1095" type="line"/>
      <point x="218" y="807" type="line"/>
      <point x="527" y="564" type="line"/>
      <point x="218" y="321" type="line"/>
    </contour>
    <contour>
      <point x="876" y="30" type="line"/>
      <point x="1485" y="453" type="line"/>
      <point x="1485" y="674" type="line"/>
      <point x="876" y="1095" type="line"/>
      <point x="876" y="807" type="line"/>
      <point x="1184" y="564" type="line"/>
      <point x="876" y="321" type="line"/>
    </contour>
  </outline>
</glyph>
<glyph name="onequarter" format="1">
  <advance width="2052"/>
  <unicode hex="00BC"/>
  <outline>
    <contour>
      <point x="1837" y="-17" type="line"/>
      <point x="1837" y="197" type="line"/>
      <point x="1967" y="197" type="line"/>
      <point x="1967" y="385" type="line"/>
      <point x="1837" y="385" type="line"/>
      <point x="1837" y="1012" type="line"/>
      <point x="1633" y="1064" type="line"/>
      <point x="1152" y="354" type="line"/>
      <point x="1184" y="197" type="line"/>
      <point x="1614" y="197" type="line"/>
      <point x="1614" y="0" type="line"/>
    </contour>
    <contour>
      <point x="308" y="624" type="line"/>
      <point x="557" y="624" type="line"/>
      <point x="557" y="1492" type="line"/>
      <point x="384" y="1532" type="line"/>
      <point x="65" y="1388" type="line"/>
      <point x="139" y="1219" type="line"/>
      <point x="308" y="1300" type="line"/>
    </contour>
    <contour>
      <point x="601" y="-75" type="line"/>
      <point x="1552" y="1498" type="line"/>
      <point x="1371" y="1598" type="line"/>
      <point x="419" y="22" type="line"/>
    </contour>
    <contour>
      <point x="1394" y="383" type="line"/>
      <point x="1614" y="725" type="line"/>
      <point x="1614" y="383" type="line"/>
    </contour>
  </outline>
</glyph>
<glyph name="threequarters" format="1">
  <advance width="2194"/>
  <unicode hex="00BE"/>
  <outline>
    <contour>
      <point x="443" y="479" type="curve" smooth="yes"/>
      <point x="635" y="479"/>
      <point x="804" y="567"/>
      <point x="804" y="789" type="curve" smooth="yes"/>
      <point x="804" y="855"/>
      <point x="771" y="1005"/>
      <point x="600" y="1034" type="curve"/>
      <point x="709" y="1058"/>
      <point x="769" y="1162"/>
      <point x="769" y="1262" type="curve" smooth="yes"/>
      <point x="769" y="1456"/>
      <point x="613" y="1534"/>
      <point x="435" y="1534" type="curve" smooth="yes"/>
      <point x="324" y="1533"/>
      <point x="199" y="1501"/>
      <point x="96" y="1449" type="curve"/>
      <point x="184" y="1264" type="line"/>
      <point x="258" y="1303"/>
      <point x="329" y="1322"/>
      <point x="388" y="1322" type="curve" smooth="yes"/>
      <point x="477" y="1322"/>
      <point x="517" y="1283"/>
      <point x="517" y="1225" type="curve" smooth="yes"/>
      <point x="517" y="1144"/>
      <point x="441" y="1111"/>
      <point x="313" y="1111" type="curve"/>
      <point x="313" y="936" type="line"/>
      <point x="376" y="935"/>
      <point x="534" y="898"/>
      <point x="534" y="804" type="curve" smooth="yes"/>
      <point x="534" y="721"/>
      <point x="473" y="687"/>
      <point x="389" y="687" type="curve" smooth="yes"/>
      <point x="326" y="687"/>
      <point x="250" y="707"/>
      <point x="183" y="742" type="curve"/>
      <point x="115" y="549" type="line"/>
      <point x="217" y="506"/>
      <point x="335" y="479"/>
    </contour>
    <contour>
      <point x="1985" y="-17" type="line"/>
      <point x="1985" y="197" type="line"/>
      <point x="2115" y="197" type="line"/>
      <point x="2115" y="385" type="line"/>
      <point x="1985" y="385" type="line"/>
      <point x="1985" y="1021" type="line"/>
      <point x="1784" y="1073" type="line"/>
      <point x="1298" y="354" type="line"/>
      <point x="1330" y="197" type="line"/>
      <point x="1763" y="197" type="line"/>
      <point x="1763" y="0" type="line"/>
    </contour>
    <contour>
      <point x="780" y="-75" type="line"/>
      <point x="1730" y="1498" type="line"/>
      <point x="1550" y="1598" type="line"/>
      <point x="597" y="22" type="line"/>
    </contour>
    <contour>
      <point x="1525" y="383" type="line"/>
      <point x="1763" y="747" type="line"/>
      <point x="1763" y="383" type="line"/>
    </contour>
  </outline>
</glyph>
<glyph name="Thorn" format="1">
  <advance width="1412"/>
  <unicode hex="00DE"/>
  <outline>
    <contour>
      <point x="168" y="0" type="line"/>
      <point x="533" y="0" type="line"/>
      <point x="533" y="326" type="line"/>
      <point x="573" y="326" type="line" smooth="yes"/>
      <point x="1091" y="325"/>
      <point x="1329" y="423"/>
      <point x="1329" y="820" type="curve" smooth="yes"/>
      <point x="1329" y="1130"/>
      <point x="1125" y="1213"/>
      <point x="626" y="1213" type="curve" smooth="yes"/>
      <point x="533" y="1213" type="line"/>
      <point x="533" y="1490" type="line"/>
      <point x="168" y="1490" type="line"/>
    </contour>
    <contour>
      <point x="533" y="561" type="line"/>
      <point x="533" y="993" type="line"/>
      <point x="615" y="993" type="line" smooth="yes"/>
      <point x="862" y="993"/>
      <point x="963" y="956"/>
      <point x="963" y="786" type="curve" smooth="yes"/>
      <point x="963" y="604"/>
      <point x="837" y="561"/>
      <point x="595" y="561" type="curve" smooth="yes"/>
    </contour>
  </outline>
</glyph>
<glyph name="eth" format="1">
  <advance width="1227"/>
  <unicode hex="00F0"/>
  <outline>
    <contour>
      <point x="619" y="-17" type="curve" smooth="yes"/>
      <point x="950" y="-17"/>
      <point x="1153" y="186"/>
      <point x="1153" y="591" type="curve" smooth="yes"/>
      <point x="1153" y="968"/>
      <point x="1001" y="1236"/>
      <point x="833" y="1409" type="curve"/>
      <point x="1019" y="1543" type="line"/>
      <point x="924" y="1662" type="line"/>
      <point x="719" y="1508" type="line"/>
      <point x="667" y="1558"/>
      <point x="572" y="1632"/>
      <point x="500" y="1677" type="curve"/>
      <point x="360" y="1510" type="line"/>
      <point x="403" y="1486"/>
      <point x="500" y="1406"/>
      <point x="548" y="1363" type="curve"/>
      <point x="412" y="1262" type="line"/>
      <point x="498" y="1165" type="line"/>
      <point x="647" y="1268" type="line"/>
      <point x="720" y="1201"/>
      <point x="791" y="1095"/>
      <point x="799" y="973" type="curve"/>
      <point x="736" y="1030"/>
      <point x="645" y="1073"/>
      <point x="513" y="1073" type="curve" smooth="yes"/>
      <point x="295" y="1073"/>
      <point x="92" y="899"/>
      <point x="92" y="566" type="curve" smooth="yes"/>
      <point x="92" y="123"/>
      <point x="342" y="-17"/>
    </contour>
    <contour>
      <point x="612" y="195" type="curve" smooth="yes"/>
      <point x="482" y="195"/>
      <point x="435" y="318"/>
      <point x="435" y="518" type="curve" smooth="yes"/>
      <point x="435" y="736"/>
      <point x="483" y="859"/>
      <point x="617" y="859" type="curve" smooth="yes"/>
      <point x="744" y="859"/>
      <point x="804" y="745"/>
      <point x="804" y="532" type="curve" smooth="yes"/>
      <point x="804" y="323"/>
      <point x="757" y="195"/>
    </contour>
  </outline>
</glyph>
<glyph name="divide" format="1">
  <advance width="1223"/>
  <unicode hex="00F7"/>
  <outline>
    <contour>
      <point x="620" y="101" type="curve" smooth="yes"/>
      <point x="735" y="101"/>
      <point x="808" y="173"/>
      <point x="808" y="285" type="curve" smooth="yes"/>
      <point x="808" y="395"/>
      <point x="735" y="468"/>
      <point x="620" y="468" type="curve" smooth="yes"/>
      <point x="508" y="468"/>
      <point x="436" y="395"/>
      <point x="436" y="285" type="curve" smooth="yes"/>
      <point x="436" y="173"/>
      <point x="508" y="101"/>
    </contour>
    <contour>
      <point x="117" y="610" type="line"/>
      <point x="1120" y="610" type="line"/>
      <point x="1120" y="840" type="line"/>
      <point x="117" y="840" type="line"/>
    </contour>
    <contour>
      <point x="621" y="972" type="curve" smooth="yes"/>
      <point x="734" y="972"/>
      <point x="805" y="1045"/>
      <point x="805" y="1156" type="curve" smooth="yes"/>
      <point x="805" y="1267"/>
      <point x="734" y="1339"/>
      <point x="621" y="1339" type="curve" smooth="yes"/>
      <point x="506" y="1339"/>
      <point x="432" y="1267"/>
      <point x="432" y="1156" type="curve" smooth="yes"/>
      <point x="432" y="1045"/>
      <point x="506" y="972"/>
    </contour>
  </outline>
</glyph>
<glyph name="oslash" format="1">
  <advance width="1257"/>
  <unicode hex="00F8"/>
  <outline>
    <contour>
      <point x="448" y="-165" type="line"/>
      <point x="497" y="-16" type="line"/>
      <point x="536" y="-22"/>
      <point x="578" y="-25"/>
      <point x="623" y="-25" type="curve" smooth="yes"/>
      <point x="971" y="-25"/>
      <point x="1163" y="183"/>
      <point x="1163" y="549" type="curve" smooth="yes"/>
      <point x="1163" y="826"/>
      <point x="1053" y="1010"/>
      <point x="860" y="1087" type="curve"/>
      <point x="915" y="1253" type="line"/>
      <point x="815" y="1288" type="line"/>
      <point x="759" y="1118" type="line"/>
      <point x="717" y="1126"/>
      <point x="670" y="1129"/>
      <point x="622" y="1129" type="curve" smooth="yes"/>
      <point x="279" y="1129"/>
      <point x="82" y="921"/>
      <point x="82" y="549" type="curve" smooth="yes"/>
      <point x="82" y="271"/>
      <point x="194" y="86"/>
      <point x="394" y="12" type="curve"/>
      <point x="346" y="-131" type="line"/>
    </contour>
    <contour>
      <point x="481" y="279" type="line"/>
      <point x="435" y="350"/>
      <point x="429" y="461"/>
      <point x="429" y="552" type="curve" smooth="yes"/>
      <point x="429" y="798"/>
      <point x="494" y="897"/>
      <point x="623" y="897" type="curve" smooth="yes"/>
      <point x="645" y="897"/>
      <point x="666" y="895"/>
      <point x="683" y="889" type="curve"/>
    </contour>
    <contour>
      <point x="623" y="206" type="curve" smooth="yes"/>
      <point x="604" y="206"/>
      <point x="587" y="208"/>
      <point x="572" y="212" type="curve"/>
      <point x="771" y="817" type="line"/>
      <point x="801" y="763"/>
      <point x="818" y="679"/>
      <point x="818" y="552" type="curve" smooth="yes"/>
      <point x="818" y="305"/>
      <point x="752" y="206"/>
    </contour>
  </outline>
</glyph>
<glyph name="hbar" format="1">
  <advance width="1293"/>
  <unicode hex="0127"/>
  <outline>
    <contour>
      <point x="138" y="0" type="line"/>
      <point x="485" y="0" type="line"/>
      <point x="485" y="833" type="line"/>
      <point x="477" y="824"/>
      <point x="537" y="900"/>
      <point x="671" y="900" type="curve" smooth="yes"/>
      <point x="744" y="900"/>
      <point x="820" y="838"/>
      <point x="820" y="707" type="curve" smooth="yes"/>
      <point x="820" y="0" type="line"/>
      <point x="1166" y="0" type="line"/>
      <point x="1166" y="681" type="line" smooth="yes"/>
      <point x="1166" y="1017"/>
      <point x="961" y="1129"/>
      <point x="784" y="1129" type="curve" smooth="yes"/>
      <point x="661" y="1129"/>
      <point x="539" y="1079"/>
      <point x="485" y="1003" type="curve"/>
      <point x="485" y="1219" type="line"/>
      <point x="768" y="1219" type="line"/>
      <point x="768" y="1377" type="line"/>
      <point x="485" y="1377" type="line"/>
      <point x="485" y="1549" type="line"/>
      <point x="138" y="1490" type="line"/>
      <point x="138" y="1377" type="line"/>
      <point x="7" y="1377" type="line"/>
      <point x="7" y="1219" type="line"/>
      <point x="138" y="1219" type="line"/>
    </contour>
  </outline>
</glyph>
<glyph name="kgreenlandic" format="1">
  <advance width="1283"/>
  <unicode hex="0138"/>
  <outline>
    <contour>
      <point x="139" y="0" type="line"/>
      <point x="486" y="0" type="line"/>
      <point x="486" y="366" type="line"/>
      <point x="571" y="448" type="line"/>
      <point x="871" y="0" type="line"/>
      <point x="1272" y="0" type="line"/>
      <point x="796" y="609" type="line"/>
      <point x="1276" y="1098" type="line"/>
      <point x="876" y="1098" type="line"/>
      <point x="486" y="664" type="line"/>
      <point x="486" y="1098" type="line"/>
      <point x="139" y="1098" type="line"/>
    </contour>
  </outline>
</glyph>
<glyph name="eng" format="1">
  <advance width="1302"/>
  <unicode hex="014B"/>
  <outline>
    <contour>
      <point x="444" y="973" type="curve"/>
      <point x="407" y="1096" type="line"/>
      <point x="143" y="1096" type="line"/>
      <point x="143" y="0" type="line"/>
      <point x="489" y="0" type="line"/>
      <point x="489" y="782" type="line"/>
      <point x="554" y="845"/>
      <point x="625" y="877"/>
      <point x="697" y="877" type="curve" smooth="yes"/>
      <point x="791" y="877"/>
      <point x="833" y="827"/>
      <point x="833" y="690" type="curve" smooth="yes"/>
      <point x="833" y="62" type="line" smooth="yes"/>
      <point x="833" y="-161"/>
      <point x="819" y="-201"/>
      <point x="609" y="-282" type="curve"/>
      <point x="720" y="-520" type="line"/>
      <point x="1010" y="-456"/>
      <point x="1178" y="-350"/>
      <point x="1178" y="-48" type="curve" smooth="yes"/>
      <point x="1178" y="706" type="line" smooth="yes"/>
      <point x="1178" y="1045"/>
      <point x="987" y="1116"/>
      <point x="819" y="1116" type="curve" smooth="yes"/>
      <point x="671" y="1116"/>
      <point x="541" y="1056"/>
    </contour>
  </outline>
</glyph>
<glyph name="caron" format="1">
  <advance width="1205"/>
  <unicode hex="02C7"/>
  <outline>
    <contour>
      <point x="605" y="1098" type="move" name="_top"/>
    </contour>
    <contour>
      <point x="439" y="1241" type="line"/>
      <point x="763" y="1241" type="line"/>
      <point x="1029" y="1674" type="line"/>
      <point x="717" y="1674" type="line"/>
      <point x="600" y="1435" type="line"/>
      <point x="490" y="1674" type="line"/>
      <point x="180" y="1674" type="line"/>
    </contour>
  </outline>
</glyph>
<glyph name="uni02C9" format="1">
  <advance width="650"/>
  <unicode hex="02C9"/>
  <outline>
    <contour>
      <point x="332" y="1098" type="move" name="_top"/>
    </contour>
    <contour>
      <point x="333" y="1341" type="move" name="_mid"/>
    </contour>
    <contour>
      <point x="0" y="1263" type="line"/>
      <point x="650" y="1263" type="line"/>
      <point x="650" y="1421" type="line"/>
      <point x="0" y="1421" type="line"/>
    </contour>
  </outline>
</glyph>
<glyph name="dotaccent" format="1">
  <advance width="588"/>
  <unicode hex="02D9"/>
  <outline>
    <contour>
      <point x="290" y="1098" type="move" name="_top"/>
    </contour>
    <contour>
      <point x="290" y="1252" type="curve" smooth="yes"/>
      <point x="398" y="1252"/>
      <point x="484" y="1333"/>
      <point x="484" y="1444" type="curve" smooth="yes"/>
      <point x="484" y="1553"/>
      <point x="396" y="1634"/>
      <point x="290" y="1634" type="curve" smooth="yes"/>
      <point x="181" y="1634"/>
      <point x="100" y="1553"/>
      <point x="100" y="1444" type="curve" smooth="yes"/>
      <point x="100" y="1338"/>
      <point x="178" y="1252"/>
    </contour>
  </outline>
</glyph>
<glyph name="uni0311" format="1">
  <advance width="670"/>
  <unicode hex="0311"/>
  <outline>
    <contour>
      <point x="350" y="1098" type="move" name="_top"/>
    </contour>
    <contour>
      <point x="35" y="1229" type="curve"/>
      <point x="216" y="1229" type="line"/>
      <point x="218" y="1305"/>
      <point x="262" y="1342"/>
      <point x="348" y="1342" type="curve" smooth="yes"/>
      <point x="438" y="1342"/>
      <point x="482" y="1305"/>
      <point x="484" y="1229" type="curve"/>
      <point x="664" y="1229" type="line"/>
      <point x="655" y="1434"/>
      <point x="551" y="1532"/>
      <point x="347" y="1532" type="curve" smooth="yes"/>
      <point x="147" y="1532"/>
      <point x="45" y="1434"/>
    </contour>
  </outline>
</glyph>
<glyph name="uni0358" format="1">
  <advance width="588"/>
  <unicode hex="0358"/>
  <outline>
    <contour>
      <point x="279" y="1098" type="move" name="_top"/>
    </contour>
    <contour>
      <point x="280" y="1219" type="curve" smooth="yes"/>
      <point x="398" y="1219"/>
      <point x="473" y="1293"/>
      <point x="473" y="1410" type="curve" smooth="yes"/>
      <point x="473" y="1527"/>
      <point x="398" y="1601"/>
      <point x="280" y="1601" type="curve" smooth="yes"/>
      <point x="163" y="1601"/>
      <point x="89" y="1527"/>
      <point x="89" y="1410" type="curve" smooth="yes"/>
      <point x="89" y="1293"/>
      <point x="163" y="1219"/>
    </contour>
  </outline>
</glyph>
<glyph name="Sigma" format="1">
  <advance width="1415"/>
  <unicode hex="03A3"/>
  <outline>
    <contour>
      <point x="147" y="0" type="line"/>
      <point x="1320" y="0" type="line"/>
      <point x="1320" y="263" type="line"/>
      <point x="572" y="263" type="line"/>
      <point x="1130" y="639" type="line"/>
      <point x="1130" y="883" type="line"/>
      <point x="594" y="1242" type="line"/>
      <point x="1270" y="1242" type="line"/>
      <point x="1270" y="1485" type="line"/>
      <point x="155" y="1485" type="line"/>
      <point x="155" y="1164" type="line"/>
      <point x="765" y="727" type="line"/>
      <point x="147" y="259" type="line"/>
    </contour>
  </outline>
</glyph>
<glyph name="uni03A9" format="1">
  <advance width="1808"/>
  <unicode hex="03A9"/>
  <outline>
    <contour>
      <point x="135" y="0" type="line"/>
      <point x="818" y="0" type="line"/>
      <point x="818" y="153" type="line"/>
      <point x="611" y="267"/>
      <point x="440" y="522"/>
      <point x="440" y="826" type="curve" smooth="yes"/>
      <point x="440" y="1130"/>
      <point x="650" y="1263"/>
      <point x="934" y="1263" type="curve" smooth="yes"/>
      <point x="1246" y="1263"/>
      <point x="1415" y="1096"/>
      <point x="1415" y="822" type="curve" smooth="yes"/>
      <point x="1415" y="514"/>
      <point x="1236" y="270"/>
      <point x="1033" y="152" type="curve"/>
      <point x="1034" y="0" type="line"/>
      <point x="1712" y="0" type="line"/>
      <point x="1732" y="184" type="line"/>
      <point x="1387" y="184" type="line"/>
      <point x="1572" y="344"/>
      <point x="1724" y="555"/>
      <point x="1724" y="841" type="curve" smooth="yes"/>
      <point x="1724" y="1209"/>
      <point x="1459" y="1514"/>
      <point x="939" y="1514" type="curve" smooth="yes"/>
      <point x="439" y="1514"/>
      <point x="131" y="1242"/>
      <point x="131" y="845" type="curve" smooth="yes"/>
      <point x="131" y="565"/>
      <point x="257" y="349"/>
      <point x="459" y="184" type="curve"/>
      <point x="112" y="184" type="line"/>
    </contour>
  </outline>
</glyph>
<glyph name="uni03BC" format="1">
  <advance width="1302"/>
  <unicode hex="03BC"/>
  <outline>
    <contour>
      <point x="489" y="-323" type="line"/>
      <point x="489" y="40" type="line"/>
      <point x="521" y="10"/>
      <point x="563" y="-8"/>
      <point x="611" y="-8" type="curve" smooth="yes"/>
      <point x="711" y="-8"/>
      <point x="817" y="50"/>
      <point x="854" y="158" type="curve"/>
      <point x="934" y="0" type="line"/>
      <point x="1177" y="0" type="line"/>
      <point x="1177" y="1096" type="line"/>
      <point x="831" y="1096" type="line"/>
      <point x="831" y="281" type="line"/>
      <point x="795" y="241"/>
      <point x="724" y="215"/>
      <point x="657" y="215" type="curve" smooth="yes"/>
      <point x="560" y="215"/>
      <point x="489" y="271"/>
      <point x="489" y="381" type="curve" smooth="yes"/>
      <point x="489" y="1096" type="line"/>
      <point x="141" y="1096" type="line"/>
      <point x="141" y="-298" type="line"/>
    </contour>
  </outline>
</glyph>
<glyph name="pi" format="1">
  <advance width="1657"/>
  <unicode hex="03C0"/>
  <outline>
    <contour>
      <point x="1205" y="-16" type="curve" smooth="yes"/>
      <point x="1310" y="-16"/>
      <point x="1391" y="12"/>
      <point x="1455" y="72" type="curve"/>
      <point x="1455" y="240" type="line"/>
      <point x="1412" y="223"/>
      <point x="1368" y="211"/>
      <point x="1333" y="211" type="curve" smooth="yes"/>
      <point x="1234" y="211"/>
      <point x="1191" y="298"/>
      <point x="1191" y="473" type="curve" smooth="yes"/>
      <point x="1191" y="594"/>
      <point x="1204" y="690"/>
      <point x="1231" y="883" type="curve"/>
      <point x="1483" y="883" type="line"/>
      <point x="1483" y="1096" type="line"/>
      <point x="527" y="1096" type="line" smooth="yes"/>
      <point x="217" y="1096"/>
      <point x="111" y="950"/>
      <point x="111" y="697" type="curve"/>
      <point x="287" y="697" type="line"/>
      <point x="302" y="842"/>
      <point x="360" y="879"/>
      <point x="455" y="883" type="curve" smooth="yes"/>
      <point x="508" y="883" type="line"/>
      <point x="400" y="431" type="line" smooth="yes"/>
      <point x="335" y="159"/>
      <point x="232" y="167"/>
      <point x="112" y="179" type="curve"/>
      <point x="112" y="7" type="line"/>
      <point x="557" y="-62"/>
      <point x="648" y="132"/>
      <point x="682" y="370" type="curve" smooth="yes"/>
      <point x="757" y="883" type="line"/>
      <point x="972" y="883" type="line"/>
      <point x="936" y="633"/>
      <point x="900" y="480"/>
      <point x="900" y="321" type="curve" smooth="yes"/>
      <point x="900" y="123"/>
      <point x="963" y="-16"/>
    </contour>
  </outline>
</glyph>
<glyph name="quotesinglbase" format="1">
  <advance width="684"/>
  <unicode hex="201A"/>
  <outline>
    <contour>
      <point x="212" y="-295" type="line"/>
      <point x="372" y="-248"/>
      <point x="559" y="-185"/>
      <point x="559" y="50" type="curve" smooth="yes"/>
      <point x="559" y="50"/>
      <point x="559" y="404"/>
      <point x="559" y="404" type="curve"/>
      <point x="151" y="404" type="line"/>
      <point x="151" y="0" type="line"/>
      <point x="324" y="0" type="line"/>
      <point x="324" y="-97"/>
      <point x="277" y="-142"/>
      <point x="152" y="-186" type="curve"/>
    </contour>
  </outline>
</glyph>
<glyph name="quotedblleft" format="1">
  <advance width="1149"/>
  <unicode hex="201C"/>
  <outline>
    <contour>
      <point x="98" y="787" type="line"/>
      <point x="507" y="787" type="line"/>
      <point x="507" y="1191" type="line"/>
      <point x="334" y="1191" type="line"/>
      <point x="334" y="1287"/>
      <point x="382" y="1331"/>
      <point x="506" y="1378" type="curve"/>
      <point x="446" y="1487" type="line"/>
      <point x="286" y="1439"/>
      <point x="98" y="1375"/>
      <point x="98" y="1141" type="curve" smooth="yes"/>
    </contour>
    <contour>
      <point x="609" y="787" type="line"/>
      <point x="1017" y="787" type="line"/>
      <point x="1017" y="1191" type="line"/>
      <point x="844" y="1191" type="line"/>
      <point x="844" y="1287"/>
      <point x="892" y="1331"/>
      <point x="1016" y="1378" type="curve"/>
      <point x="956" y="1487" type="line"/>
      <point x="796" y="1439"/>
      <point x="609" y="1375"/>
      <point x="609" y="1141" type="curve" smooth="yes"/>
    </contour>
  </outline>
</glyph>
<glyph name="quotedblright" format="1">
  <advance width="1033"/>
  <unicode hex="201D"/>
  <outline>
    <contour>
      <point x="129" y="785" type="line"/>
      <point x="296" y="834"/>
      <point x="476" y="901"/>
      <point x="476" y="1132" type="curve" smooth="yes"/>
      <point x="476" y="1484" type="line"/>
      <point x="68" y="1484" type="line"/>
      <point x="68" y="1080" type="line"/>
      <point x="240" y="1080" type="line"/>
      <point x="241" y="984"/>
      <point x="193" y="939"/>
      <point x="69" y="894" type="curve"/>
    </contour>
    <contour>
      <point x="638" y="785" type="line"/>
      <point x="805" y="834"/>
      <point x="986" y="901"/>
      <point x="986" y="1132" type="curve" smooth="yes"/>
      <point x="986" y="1484" type="line"/>
      <point x="578" y="1484" type="line"/>
      <point x="578" y="1080" type="line"/>
      <point x="751" y="1080" type="line"/>
      <point x="751" y="984"/>
      <point x="703" y="939"/>
      <point x="579" y="894" type="curve"/>
    </contour>
  </outline>
</glyph>
<glyph name="quotedblbase" format="1">
  <advance width="1114"/>
  <unicode hex="201E"/>
  <outline>
    <contour>
      <point x="188" y="-293" type="line"/>
      <point x="348" y="-245"/>
      <point x="535" y="-182"/>
      <point x="535" y="53" type="curve" smooth="yes"/>
      <point x="535" y="53"/>
      <point x="535" y="406"/>
      <point x="535" y="406" type="curve"/>
      <point x="128" y="406" type="line"/>
      <point x="128" y="2" type="line"/>
      <point x="301" y="2" type="line"/>
      <point x="300" y="-94"/>
      <point x="253" y="-139"/>
      <point x="129" y="-184" type="curve"/>
    </contour>
    <contour>
      <point x="698" y="-293" type="line"/>
      <point x="858" y="-245"/>
      <point x="1046" y="-182"/>
      <point x="1046" y="53" type="curve" smooth="yes"/>
      <point x="1046" y="53"/>
      <point x="1046" y="406"/>
      <point x="1046" y="406" type="curve"/>
      <point x="638" y="406" type="line"/>
      <point x="638" y="2" type="line"/>
      <point x="811" y="2" type="line"/>
      <point x="810" y="-94"/>
      <point x="764" y="-139"/>
      <point x="639" y="-184" type="curve"/>
    </contour>
  </outline>
</glyph>
<glyph name="daggerdbl" format="1">
  <advance width="1180"/>
  <unicode hex="2021"/>
  <outline>
    <contour>
      <point x="410" y="-179" type="line"/>
      <point x="775" y="-179" type="line"/>
      <point x="775" y="216" type="line"/>
      <point x="1086" y="216" type="line"/>
      <point x="1086" y="451" type="line"/>
      <point x="775" y="451" type="line"/>
      <point x="775" y="849" type="line"/>
      <point x="1085" y="849" type="line"/>
      <point x="1085" y="1083" type="line"/>
      <point x="774" y="1083" type="line"/>
      <point x="774" y="1490" type="line"/>
      <point x="410" y="1490" type="line"/>
      <point x="410" y="1083" type="line"/>
      <point x="94" y="1083" type="line"/>
      <point x="94" y="849" type="line"/>
      <point x="410" y="849" type="line"/>
      <point x="410" y="451" type="line"/>
      <point x="94" y="451" type="line"/>
      <point x="94" y="216" type="line"/>
      <point x="410" y="216" type="line"/>
    </contour>
  </outline>
</glyph>
<glyph name="bullet" format="1">
  <advance width="1185"/>
  <unicode hex="2022"/>
  <outline>
    <contour>
      <point x="595" y="295" type="curve" smooth="yes"/>
      <point x="803" y="295"/>
      <point x="966" y="465"/>
      <point x="966" y="640" type="curve" smooth="yes"/>
      <point x="966" y="845"/>
      <point x="777" y="987"/>
      <point x="587" y="987" type="curve" smooth="yes"/>
      <point x="391" y="987"/>
      <point x="218" y="827"/>
      <point x="218" y="640" type="curve" smooth="yes"/>
      <point x="218" y="434"/>
      <point x="407" y="295"/>
    </contour>
  </outline>
</glyph>
<glyph name="guilsinglright" format="1">
  <advance width="1033"/>
  <unicode hex="203A"/>
  <outline>
    <contour>
      <point x="218" y="30" type="line"/>
      <point x="913" y="453" type="line"/>
      <point x="913" y="674" type="line"/>
      <point x="218" y="1095" type="line"/>
      <point x="218" y="807" type="line"/>
      <point x="613" y="564" type="line"/>
      <point x="218" y="321" type="line"/>
    </contour>
  </outline>
</glyph>
<glyph name="uni203E" format="1">
  <advance width="890"/>
  <unicode hex="203E"/>
  <outline>
    <contour>
      <point x="123" y="115" type="line"/>
      <point x="767" y="115" type="line"/>
      <point x="767" y="226" type="line"/>
      <point x="123" y="226" type="line"/>
    </contour>
  </outline>
</glyph>
<glyph name="Euro" format="1">
  <advance width="1274"/>
  <unicode hex="20AC"/>
  <outline>
    <contour>
      <point x="-32" y="532" type="line"/>
      <point x="810" y="532" type="line"/>
      <point x="810" y="687" type="line"/>
      <point x="329" y="687" type="line"/>
      <point x="329" y="856" type="line"/>
      <point x="810" y="856" type="line"/>
      <point x="810" y="1011" type="line"/>
      <point x="-32" y="1011" type="line"/>
      <point x="-32" y="856" type="line"/>
      <point x="234" y="856" type="line"/>
      <point x="234" y="687" type="line"/>
      <point x="-32" y="687" type="line"/>
    </contour>
    <component base="C"/>
  </outline>
</glyph>
<glyph name="afii61289" format="1">
  <advance width="1006"/>
  <unicode hex="2113"/>
  <outline>
    <contour>
      <point x="645" y="-15" type="curve" smooth="yes"/>
      <point x="769" y="-15"/>
      <point x="877" y="14"/>
      <point x="946" y="54" type="curve"/>
      <point x="894" y="270" type="line"/>
      <point x="839" y="250"/>
      <point x="785" y="235"/>
      <point x="733" y="235" type="curve" smooth="yes"/>
      <point x="673" y="235"/>
      <point x="601" y="255"/>
      <point x="601" y="368" type="curve" smooth="yes"/>
      <point x="601" y="893" type="line"/>
      <point x="796" y="1074" type="line" smooth="yes"/>
      <point x="900" y="1169"/>
      <point x="946" y="1266"/>
      <point x="946" y="1357" type="curve" smooth="yes"/>
      <point x="946" y="1520"/>
      <point x="805" y="1644"/>
      <point x="613" y="1644" type="curve" smooth="yes"/>
      <point x="391" y="1644"/>
      <point x="268" y="1500"/>
      <point x="268" y="1285" type="curve" smooth="yes"/>
      <point x="268" y="850" type="line"/>
      <point x="102" y="700" type="line"/>
      <point x="102" y="513" type="line"/>
      <point x="268" y="664" type="line"/>
      <point x="268" y="394" type="line" smooth="yes"/>
      <point x="268" y="52"/>
      <point x="470" y="-15"/>
    </contour>
    <contour>
      <point x="601" y="1096" type="line"/>
      <point x="601" y="1278" type="line" smooth="yes"/>
      <point x="601" y="1363"/>
      <point x="645" y="1396"/>
      <point x="688" y="1396" type="curve" smooth="yes"/>
      <point x="738" y="1396"/>
      <point x="764" y="1362"/>
      <point x="764" y="1317" type="curve" smooth="yes"/>
      <point x="764" y="1279"/>
      <point x="745" y="1236"/>
      <point x="710" y="1202" type="curve" smooth="yes"/>
    </contour>
  </outline>
</glyph>
<glyph name="trademark" format="1">
  <advance width="2102"/>
  <unicode hex="2122"/>
  <outline>
    <contour>
      <point x="942" y="548" type="line"/>
      <point x="1149" y="548" type="line"/>
      <point x="1149" y="1198" type="line"/>
      <point x="1366" y="688" type="line"/>
      <point x="1539" y="688" type="line"/>
      <point x="1763" y="1198" type="line"/>
      <point x="1763" y="548" type="line"/>
      <point x="1970" y="548" type="line"/>
      <point x="1970" y="1485" type="line"/>
      <point x="1726" y="1485" type="line"/>
      <point x="1452" y="923" type="line"/>
      <point x="1193" y="1485" type="line"/>
      <point x="942" y="1485" type="line"/>
    </contour>
    <contour>
      <point x="329" y="548" type="line"/>
      <point x="561" y="548" type="line"/>
      <point x="561" y="1326" type="line"/>
      <point x="807" y="1326" type="line"/>
      <point x="807" y="1485" type="line"/>
      <point x="79" y="1485" type="line"/>
      <point x="79" y="1326" type="line"/>
      <point x="329" y="1326" type="line"/>
    </contour>
  </outline>
</glyph>
<glyph name="emptyset" format="1">
  <advance width="1657"/>
  <unicode hex="2205"/>
  <outline>
    <contour>
      <point x="354" y="-87" type="line"/>
      <point x="508" y="86" type="line"/>
      <point x="602" y="21"/>
      <point x="715" y="-17"/>
      <point x="837" y="-17" type="curve" smooth="yes"/>
      <point x="1155" y="-17"/>
      <point x="1413" y="241"/>
      <point x="1413" y="558" type="curve" smooth="yes"/>
      <point x="1413" y="704"/>
      <point x="1360" y="837"/>
      <point x="1271" y="938" type="curve"/>
      <point x="1424" y="1109" type="line"/>
      <point x="1336" y="1188" type="line"/>
      <point x="1185" y="1018" type="line"/>
      <point x="1088" y="1092"/>
      <point x="967" y="1135"/>
      <point x="837" y="1135" type="curve" smooth="yes"/>
      <point x="519" y="1135"/>
      <point x="262" y="876"/>
      <point x="262" y="558" type="curve" smooth="yes"/>
      <point x="262" y="405"/>
      <point x="322" y="266"/>
      <point x="419" y="163" type="curve"/>
      <point x="265" y="-9" type="line"/>
    </contour>
    <contour>
      <point x="543" y="303" type="line"/>
      <point x="486" y="372"/>
      <point x="454" y="461"/>
      <point x="454" y="558" type="curve" smooth="yes"/>
      <point x="454" y="770"/>
      <point x="610" y="950"/>
      <point x="837" y="950" type="curve" smooth="yes"/>
      <point x="923" y="950"/>
      <point x="1000" y="925"/>
      <point x="1061" y="880" type="curve"/>
    </contour>
    <contour>
      <point x="837" y="168" type="curve" smooth="yes"/>
      <point x="759" y="168"/>
      <point x="690" y="188"/>
      <point x="633" y="224" type="curve"/>
      <point x="1145" y="797" type="line"/>
      <point x="1193" y="731"/>
      <point x="1221" y="647"/>
      <point x="1221" y="558" type="curve" smooth="yes"/>
      <point x="1221" y="347"/>
      <point x="1064" y="168"/>
    </contour>
  </outline>
</glyph>
<glyph name="Delta" format="1">
  <advance width="1407"/>
  <unicode hex="2206"/>
  <outline>
    <contour>
      <point x="14" y="0" type="line"/>
      <point x="1391" y="0" type="line"/>
      <point x="897" y="1485" type="line"/>
      <point x="509" y="1485" type="line"/>
    </contour>
    <contour>
      <point x="436" y="290" type="line"/>
      <point x="687" y="1158" type="line"/>
      <point x="901" y="290" type="line"/>
    </contour>
  </outline>
</glyph>
<glyph name="infinity" format="1">
  <advance width="1677"/>
  <unicode hex="221E"/>
  <outline>
    <contour>
      <point x="456" y="208" type="curve" smooth="yes"/>
      <point x="614" y="208"/>
      <point x="737" y="303"/>
      <point x="842" y="413" type="curve"/>
      <point x="945" y="303"/>
      <point x="1065" y="208"/>
      <point x="1224" y="208" type="curve" smooth="yes"/>
      <point x="1415" y="208"/>
      <point x="1566" y="287"/>
      <point x="1565" y="596" type="curve"/>
      <point x="1566" y="903"/>
      <point x="1415" y="982"/>
      <point x="1224" y="982" type="curve" smooth="yes"/>
      <point x="1065" y="982"/>
      <point x="945" y="888"/>
      <point x="842" y="778" type="curve"/>
      <point x="737" y="888"/>
      <point x="614" y="982"/>
      <point x="456" y="982" type="curve" smooth="yes"/>
      <point x="265" y="982"/>
      <point x="113" y="892"/>
      <point x="114" y="596" type="curve"/>
      <point x="113" y="298"/>
      <point x="265" y="208"/>
    </contour>
    <contour>
      <point x="451" y="446" type="curve" smooth="yes"/>
      <point x="347" y="446"/>
      <point x="324" y="522"/>
      <point x="325" y="594" type="curve" smooth="yes"/>
      <point x="324" y="683"/>
      <point x="366" y="745"/>
      <point x="451" y="745" type="curve" smooth="yes"/>
      <point x="530" y="745"/>
      <point x="616" y="679"/>
      <point x="690" y="595" type="curve"/>
      <point x="616" y="511"/>
      <point x="530" y="446"/>
    </contour>
    <contour>
      <point x="1229" y="446" type="curve" smooth="yes"/>
      <point x="1155" y="446"/>
      <point x="1070" y="511"/>
      <point x="996" y="595" type="curve"/>
      <point x="1070" y="679"/>
      <point x="1155" y="745"/>
      <point x="1229" y="745" type="curve" smooth="yes"/>
      <point x="1312" y="745"/>
      <point x="1354" y="694"/>
      <point x="1354" y="595" type="curve"/>
      <point x="1354" y="496"/>
      <point x="1312" y="446"/>
    </contour>
  </outline>
</glyph>
<glyph name="lozenge" format="1">
  <advance width="1365"/>
  <unicode hex="25CA"/>
  <outline>
    <contour>
      <point x="682" y="205" type="line"/>
      <point x="374" y="550" type="line"/>
      <point x="683" y="898" type="line"/>
      <point x="991" y="552" type="line"/>
    </contour>
    <contour>
      <point x="682" y="-62" type="line"/>
      <point x="1258" y="552" type="line"/>
      <point x="683" y="1164" type="line"/>
      <point x="107" y="550" type="line"/>
    </contour>
  </outline>
</glyph>
<glyph name="uniFB00" format="1">
  <advance width="1669"/>
  <unicode hex="FB00"/>
  <outline>
    <contour>
      <point x="211" y="0" type="line"/>
      <point x="556" y="0" type="line"/>
      <point x="556" y="909" type="line"/>
      <point x="992" y="909" type="line"/>
      <point x="992" y="0" type="line"/>
      <point x="1337" y="0" type="line"/>
      <point x="1337" y="909" type="line"/>
      <point x="1640" y="909" type="line"/>
      <point x="1640" y="1096" type="line"/>
      <point x="1337" y="1096" type="line"/>
      <point x="1337" y="1162" type="line" smooth="yes"/>
      <point x="1337" y="1290"/>
      <point x="1410" y="1320"/>
      <point x="1487" y="1320" type="curve" smooth="yes"/>
      <point x="1532" y="1320"/>
      <point x="1587" y="1308"/>
      <point x="1633" y="1294" type="curve"/>
      <point x="1683" y="1502" type="line"/>
      <point x="1615" y="1543"/>
      <point x="1507" y="1573"/>
      <point x="1383" y="1573" type="curve" smooth="yes"/>
      <point x="1210" y="1574"/>
      <point x="992" y="1494"/>
      <point x="992" y="1129" type="curve" smooth="yes"/>
      <point x="992" y="1096" type="line"/>
      <point x="556" y="1096" type="line"/>
      <point x="556" y="1162" type="line" smooth="yes"/>
      <point x="556" y="1290"/>
      <point x="629" y="1320"/>
      <point x="706" y="1320" type="curve" smooth="yes"/>
      <point x="751" y="1320"/>
      <point x="805" y="1308"/>
      <point x="851" y="1294" type="curve"/>
      <point x="902" y="1502" type="line"/>
      <point x="834" y="1543"/>
      <point x="726" y="1573"/>
      <point x="602" y="1573" type="curve" smooth="yes"/>
      <point x="428" y="1574"/>
      <point x="211" y="1494"/>
      <point x="211" y="1129" type="curve" smooth="yes"/>
      <point x="211" y="1096" type="line"/>
      <point x="28" y="1096" type="line"/>
      <point x="28" y="909" type="line"/>
      <point x="211" y="909" type="line"/>
    </contour>
  </outline>
</glyph>
<glyph name="uniFB01" format="1">
  <advance width="1475"/>
  <unicode hex="FB01"/>
  <outline>
    <contour>
      <point x="195" y="0" type="line"/>
      <point x="542" y="0" type="line"/>
      <point x="542" y="938" type="line"/>
      <point x="966" y="938" type="line"/>
      <point x="966" y="0" type="line"/>
      <point x="1314" y="0" type="line"/>
      <point x="1314" y="1098" type="line"/>
      <point x="543" y="1098" type="line"/>
      <point x="543" y="1106"/>
      <point x="543" y="1132"/>
      <point x="544" y="1140" type="curve" smooth="yes"/>
      <point x="551" y="1300"/>
      <point x="628" y="1311"/>
      <point x="673" y="1311" type="curve" smooth="yes"/>
      <point x="720" y="1311"/>
      <point x="769" y="1311"/>
      <point x="813" y="1300" type="curve"/>
      <point x="802" y="1555" type="line"/>
      <point x="727" y="1565"/>
      <point x="662" y="1567"/>
      <point x="592" y="1567" type="curve" smooth="yes"/>
      <point x="369" y="1568"/>
      <point x="209" y="1447"/>
      <point x="196" y="1155" type="curve" smooth="yes"/>
      <point x="196" y="1142"/>
      <point x="195" y="1112"/>
      <point x="195" y="1098" type="curve"/>
      <point x="15" y="1098" type="line"/>
      <point x="15" y="938" type="line"/>
      <point x="195" y="938" type="line"/>
    </contour>
    <contour>
      <point x="1140" y="1263" type="curve" smooth="yes"/>
      <point x="1248" y="1263"/>
      <point x="1334" y="1345"/>
      <point x="1334" y="1453" type="curve" smooth="yes"/>
      <point x="1334" y="1560"/>
      <point x="1247" y="1645"/>
      <point x="1140" y="1645" type="curve" smooth="yes"/>
      <point x="1033" y="1645"/>
      <point x="950" y="1560"/>
      <point x="950" y="1453" type="curve" smooth="yes"/>
      <point x="950" y="1349"/>
      <point x="1030" y="1263"/>
    </contour>
  </outline>
</glyph>
<glyph name="uniFB04" format="1">
  <advance width="2314"/>
  <unicode hex="FB04"/>
  <outline>
    <contour>
      <point x="211" y="0" type="line"/>
      <point x="556" y="0" type="line"/>
      <point x="556" y="909" type="line"/>
      <point x="1015" y="909" type="line"/>
      <point x="1015" y="0" type="line"/>
      <point x="1362" y="0" type="line"/>
      <point x="1362" y="909" type="line"/>
      <point x="1620" y="909" type="line"/>
      <point x="1620" y="1096" type="line"/>
      <point x="1363" y="1096" type="line"/>
      <point x="1363" y="1133" type="line"/>
      <point x="1368" y="1298"/>
      <point x="1445" y="1342"/>
      <point x="1573" y="1342" type="curve" smooth="yes"/>
      <point x="1635" y="1342"/>
      <point x="1706" y="1332"/>
      <point x="1786" y="1320" type="curve"/>
      <point x="1786" y="0" type="line"/>
      <point x="2133" y="0" type="line"/>
      <point x="2133" y="1518" type="line"/>
      <point x="1903" y="1548"/>
      <point x="1692" y="1579"/>
      <point x="1518" y="1579" type="curve" smooth="yes"/>
      <point x="1217" y="1579"/>
      <point x="1015" y="1484"/>
      <point x="1015" y="1137" type="curve" smooth="yes"/>
      <point x="1015" y="1096" type="line"/>
      <point x="556" y="1096" type="line"/>
      <point x="556" y="1162" type="line" smooth="yes"/>
      <point x="556" y="1291"/>
      <point x="629" y="1320"/>
      <point x="706" y="1321" type="curve" smooth="yes"/>
      <point x="751" y="1321"/>
      <point x="805" y="1309"/>
      <point x="851" y="1294" type="curve"/>
      <point x="902" y="1503" type="line"/>
      <point x="834" y="1543"/>
      <point x="726" y="1573"/>
      <point x="602" y="1574" type="curve" smooth="yes"/>
      <point x="428" y="1574"/>
      <point x="211" y="1494"/>
      <point x="211" y="1129" type="curve" smooth="yes"/>
      <point x="211" y="1096" type="line"/>
      <point x="28" y="1096" type="line"/>
      <point x="28" y="909" type="line"/>
      <point x="211" y="909" type="line"/>
    </contour>
  </outline>
</glyph>
<glyph name="fj" format="1">
  <advance width="1447"/>
  <outline>
    <contour>
      <point x="550" y="1098" type="line"/>
      <point x="550" y="1264"/>
      <point x="597" y="1311"/>
      <point x="676" y="1311" type="curve" smooth="yes"/>
      <point x="729" y="1312"/>
      <point x="774" y="1305"/>
      <point x="814" y="1293" type="curve"/>
      <point x="808" y="1547" type="line"/>
      <point x="739" y="1560"/>
      <point x="668" y="1569"/>
      <point x="595" y="1569" type="curve" smooth="yes"/>
      <point x="330" y="1568"/>
      <point x="202" y="1405"/>
      <point x="202" y="1098" type="curve"/>
      <point x="23" y="1098" type="line"/>
      <point x="23" y="941" type="line"/>
      <point x="202" y="941" type="line"/>
      <point x="202" y="0" type="line"/>
      <point x="548" y="0" type="line"/>
      <point x="548" y="941" type="line"/>
      <point x="972" y="941" type="line"/>
      <point x="972" y="215" type="line" smooth="yes"/>
      <point x="972" y="42"/>
      <point x="893" y="-25"/>
      <point x="772" y="-92" type="curve"/>
      <point x="883" y="-326" type="line"/>
      <point x="1114" y="-273"/>
      <point x="1319" y="-84"/>
      <point x="1319" y="197" type="curve" smooth="yes"/>
      <point x="1319" y="1098" type="line"/>
    </contour>
    <contour>
      <point x="1144" y="1263" type="curve" smooth="yes"/>
      <point x="1254" y="1263"/>
      <point x="1330" y="1345"/>
      <point x="1330" y="1453" type="curve" smooth="yes"/>
      <point x="1330" y="1560"/>
      <point x="1252" y="1645"/>
      <point x="1144" y="1645" type="curve" smooth="yes"/>
      <point x="1037" y="1645"/>
      <point x="958" y="1563"/>
      <point x="958" y="1453" type="curve" smooth="yes"/>
      <point x="958" y="1350"/>
      <point x="1033" y="1263"/>
    </contour>
  </outline>
</glyph>
